<?xml version="1.0" standalone="no"?>
<!DOCTYPE svg PUBLIC "-//W3C//DTD SVG 20010904//EN"
 "http://www.w3.org/TR/2001/REC-SVG-20010904/DTD/svg10.dtd">
<svg version="1.0" xmlns="http://www.w3.org/2000/svg"
 width="225.000000pt" height="150.000000pt" viewBox="0 0 225.000000 150.000000"
 preserveAspectRatio="xMidYMid meet">
<metadata>
Created by potrace 1.10, written by Peter Selinger 2001-2011
</metadata>
<g transform="translate(0.000000,150.000000) scale(0.100000,-0.100000)"
fill="#000000" stroke="none">
<path d="M420 1500 c0 -1492 0 -1500 20 -1500 20 0 20 8 20 1500 0 1491 0
1500 -20 1500 -20 0 -20 -9 -20 -1500z"/>
<path d="M1103 2965 c0 -22 2 -30 4 -17 2 12 2 30 0 40 -3 9 -5 -1 -4 -23z"/>
<path d="M1341 2948 c-1 -47 2 -58 15 -58 11 0 14 6 8 23 -4 12 -11 38 -15 57
-6 31 -7 28 -8 -22z"/>
<path d="M1383 2986 c-23 -26 2 -35 30 -10 28 24 28 24 5 24 -13 -1 -28 -7
-35 -14z"/>
<path d="M1720 2903 c7 -135 5 -145 -34 -141 -30 3 -31 4 -28 46 4 46 -5 52
-32 23 -11 -12 -14 -21 -7 -26 6 -3 11 -14 11 -24 0 -9 7 -26 17 -37 14 -18
19 -19 42 -8 14 7 38 17 53 23 20 7 25 15 21 30 -4 15 1 22 20 26 44 11 65 -2
64 -38 -2 -30 -5 -32 -40 -35 -29 -3 -37 -7 -35 -20 1 -9 -1 -22 -5 -29 -6 -9
15 -12 85 -12 l92 0 45 42 c72 65 78 103 11 64 -42 -23 -53 -43 -20 -34 11 3
18 1 14 -4 -3 -5 -11 -9 -19 -9 -7 0 -15 -5 -17 -11 -2 -7 -29 -13 -63 -14
-33 -1 -50 0 -38 2 22 4 23 7 22 144 -1 125 -3 139 -19 139 -14 0 -17 -8 -15
-40 3 -45 -14 -53 -47 -23 -15 13 -19 14 -16 3 2 -7 -5 -16 -15 -18 -15 -3
-18 0 -12 17 9 29 -3 61 -23 61 -15 0 -16 -11 -12 -97z m109 -19 c26 -34 27
-54 1 -54 -11 0 -20 5 -20 10 0 6 -7 10 -15 10 -8 0 -15 -4 -15 -10 0 -5 -7
-10 -15 -10 -20 0 -19 8 5 48 24 39 32 40 59 6z"/>
<path d="M1790 2996 c0 -2 6 -9 14 -15 10 -9 15 -8 20 4 4 10 -1 15 -14 15
-11 0 -20 -2 -20 -4z"/>
<path d="M1960 2989 c0 -5 5 -7 10 -4 6 3 10 -5 10 -18 0 -19 -7 -27 -27 -32
-40 -10 -11 -22 53 -23 30 0 62 -6 69 -12 12 -10 15 -8 15 11 0 22 -3 24 -45
21 l-45 -4 0 36 c0 29 -4 36 -20 36 -11 0 -20 -5 -20 -11z"/>
<path d="M2130 2993 c0 -5 5 -15 10 -23 8 -12 10 -11 10 8 0 12 -4 22 -10 22
-5 0 -10 -3 -10 -7z"/>
<path d="M2405 2990 c-7 -11 -102 -60 -116 -60 -5 0 -9 6 -9 14 0 16 -36 11
-47 -7 -4 -6 0 -8 10 -4 24 9 33 -14 12 -30 -17 -11 -14 -17 7 -14 4 0 5 -6 2
-14 -4 -10 0 -15 11 -15 13 0 16 6 11 25 -5 19 -2 25 9 25 12 0 15 -6 10 -21
-5 -16 -3 -20 6 -17 8 3 13 14 11 25 -3 21 45 57 93 69 15 4 22 11 18 20 -6
16 -19 18 -28 4z"/>
<path d="M2484 2993 c4 -5 12 -9 17 -9 5 -1 14 -2 19 -3 6 0 10 -12 10 -26 0
-14 -4 -25 -10 -25 -5 0 -9 -15 -9 -32 l1 -33 8 30 c6 22 8 25 10 10 1 -14 5
-10 10 12 4 18 5 44 3 58 -4 20 -11 25 -36 25 -17 0 -27 -3 -23 -7z"/>
<path d="M2593 2960 c0 -25 2 -35 4 -22 2 12 2 32 0 45 -2 12 -4 2 -4 -23z"/>
<path d="M2673 2993 c-7 -2 -13 -11 -13 -19 0 -19 -10 -18 -26 4 -12 15 -13
15 -14 1 0 -20 23 -31 46 -22 12 4 15 1 13 -12 -3 -11 -28 -27 -71 -44 -57
-21 -68 -30 -68 -49 0 -15 -8 -26 -25 -32 -14 -5 -25 -14 -25 -20 0 -15 -30
-12 -31 3 0 6 0 36 1 65 1 31 -3 52 -9 52 -6 0 -11 10 -11 22 0 12 -3 18 -7
15 -12 -12 -7 -146 7 -162 10 -12 10 -15 -3 -15 -9 0 -14 -6 -11 -13 6 -15 44
-17 44 -2 0 6 75 43 167 81 92 39 168 75 170 81 3 7 -4 9 -18 6 -19 -5 -21 -3
-17 19 3 16 0 25 -9 25 -7 0 -13 -11 -13 -24 0 -13 -9 -33 -20 -45 -14 -16
-20 -18 -20 -7 0 9 -3 10 -8 3 -4 -6 -23 -14 -42 -17 -27 -5 -31 -4 -17 4 23
13 67 55 67 63 0 3 -5 5 -11 4 -6 -2 -14 3 -16 10 -3 6 0 12 6 12 6 0 11 5 11
10 0 11 -7 12 -27 3z m-83 -128 c0 -16 -27 -32 -36 -22 -7 6 17 36 29 37 4 0
7 -7 7 -15z"/>
<path d="M2822 2963 l3 -38 78 -8 c43 -5 80 -7 82 -5 1 2 0 21 -4 43 l-6 40
-55 -6 c-30 -3 -43 -6 -27 -7 15 -1 27 -6 27 -12 0 -5 7 -10 15 -10 8 0 15 -5
15 -10 0 -6 -13 -8 -32 -4 -18 3 -39 7 -45 7 -12 0 -15 6 -12 23 1 8 -22 24
-34 24 -5 0 -7 -17 -5 -37z"/>
<path d="M3020 2984 c0 -14 3 -14 15 -4 8 7 15 14 15 16 0 2 -7 4 -15 4 -8 0
-15 -7 -15 -16z"/>
<path d="M3071 2910 c1 -50 -1 -93 -5 -97 -3 -3 -1 -12 5 -19 5 -7 9 -41 7
-76 -3 -54 -6 -64 -25 -73 -27 -12 -33 -65 -8 -65 8 0 15 5 15 10 0 6 6 10 14
10 7 0 19 7 26 15 17 21 30 19 30 -5 0 -12 -5 -17 -14 -14 -7 3 -16 -2 -19
-10 -5 -11 0 -16 13 -16 13 0 22 9 26 28 11 46 80 92 98 64 2 -4 25 -6 51 -4
35 3 45 8 41 18 -3 9 2 14 14 14 11 0 19 -6 18 -12 -3 -15 34 -22 68 -14 15 4
24 14 24 26 0 23 22 26 40 6 12 -15 22 -14 78 11 47 21 39 24 -14 6 -43 -15
-47 -15 -56 1 -6 11 -16 15 -29 11 -14 -5 -19 -2 -19 14 0 15 6 21 23 21 89
-1 167 5 167 11 0 9 -29 9 -136 2 l-71 -4 1 -42 c1 -37 -2 -42 -23 -45 -19 -3
-22 0 -18 12 5 13 1 16 -16 15 -50 -5 -57 0 -57 37 0 20 -4 33 -10 29 -5 -3
-8 -27 -7 -53 2 -45 1 -47 -26 -50 -23 -3 -28 0 -27 15 1 10 2 85 1 166 -1
114 -4 148 -13 144 -7 -2 -11 -11 -9 -18 2 -8 6 -60 9 -116 4 -101 4 -103 -20
-112 -13 -5 -30 -16 -37 -25 -7 -9 -17 -14 -21 -11 -4 2 -15 -4 -25 -15 -28
-31 -47 -26 -44 13 6 90 -2 287 -12 287 -6 0 -9 -32 -8 -90z m144 -206 c-16
-13 -34 -24 -39 -24 -4 0 -22 -11 -38 -25 -16 -14 -35 -22 -40 -18 -13 7 27
43 47 43 7 0 15 3 17 8 5 12 72 51 78 46 3 -3 -8 -17 -25 -30z"/>
<path d="M3134 2984 c3 -9 6 -70 6 -135 0 -78 4 -118 10 -114 11 7 13 168 4
228 -4 20 -11 37 -16 37 -6 0 -7 -7 -4 -16z"/>
<path d="M3300 2902 c0 -64 4 -103 11 -108 9 -5 10 21 5 96 -3 57 -8 105 -11
108 -3 3 -5 -40 -5 -96z"/>
<path d="M3362 2925 c-2 -92 4 -125 24 -125 8 0 14 5 14 10 0 6 6 10 14 10 8
0 28 14 45 31 17 17 31 28 31 24 0 -4 15 3 34 14 18 12 41 21 50 21 10 0 16 9
17 23 1 18 2 19 6 4 5 -18 6 -18 19 2 9 12 20 21 25 21 6 0 17 7 26 16 11 10
19 12 26 5 14 -14 -14 -45 -54 -61 -16 -7 -29 -19 -29 -27 0 -13 3 -13 23 1
12 9 35 24 50 34 53 32 58 37 51 55 -10 26 -88 23 -115 -4 -11 -11 -26 -18
-33 -16 -7 3 -19 -3 -27 -14 -7 -10 -18 -19 -24 -19 -6 0 -17 -9 -24 -19 -8
-11 -20 -17 -28 -14 -7 3 -13 0 -13 -6 0 -6 -7 -11 -15 -11 -8 0 -15 7 -15 15
0 14 14 19 48 18 6 -1 12 4 12 9 0 14 20 30 63 52 20 11 35 21 32 24 -8 8 -99
-30 -111 -46 -6 -8 -20 -16 -31 -17 -10 0 -29 -11 -41 -23 -12 -12 -26 -22
-32 -22 -5 0 -11 26 -13 58 -3 49 -3 46 -5 -23z m56 -62 c-2 -9 -11 -17 -20
-19 -21 -3 -22 2 -5 21 16 19 29 19 25 -2z"/>
<path d="M3410 2991 c0 -5 6 -12 13 -14 10 -4 10 -6 0 -6 -18 -1 -16 -21 2
-21 9 0 15 9 15 25 0 16 -6 25 -15 25 -8 0 -15 -4 -15 -9z"/>
<path d="M3764 2991 c5 -8 56 -3 56 5 0 2 -14 4 -31 4 -16 0 -28 -4 -25 -9z"/>
<path d="M3858 2993 c18 -2 45 -2 60 0 15 2 0 4 -33 4 -33 0 -45 -2 -27 -4z"/>
<path d="M3980 1500 l0 -1500 21 0 22 0 -8 1253 c-4 688 -7 1272 -6 1297 2 25
5 136 7 248 5 198 5 202 -15 202 l-21 0 0 -1500z"/>
<path d="M1182 2960 c0 -19 2 -27 5 -17 2 9 2 25 0 35 -3 9 -5 1 -5 -18z"/>
<path d="M1286 2959 c-16 -16 -27 -32 -24 -35 8 -7 60 45 56 56 -2 5 -16 -5
-32 -21z"/>
<path d="M1470 2955 c-13 -13 -32 -27 -43 -31 -13 -4 -16 -9 -9 -16 7 -7 23 0
51 23 39 31 51 49 33 49 -5 0 -19 -11 -32 -25z"/>
<path d="M3022 2930 c0 -19 2 -27 5 -17 2 9 2 25 0 35 -3 9 -5 1 -5 -18z"/>
<path d="M1038 2944 c-5 -4 -8 -16 -8 -28 0 -14 3 -17 11 -9 6 6 9 19 7 28 -1
9 -6 13 -10 9z"/>
<path d="M1288 2899 c-16 -15 -28 -36 -28 -45 0 -12 7 -10 34 13 18 15 33 36
33 46 -2 22 -7 21 -39 -14z"/>
<path d="M3197 2906 c-3 -8 -2 -27 3 -43 8 -26 8 -25 9 15 1 43 -3 52 -12 28z"/>
<path d="M3734 2901 c3 -4 22 -6 42 -4 20 2 42 -2 50 -8 11 -9 14 -8 14 5 0
13 -11 16 -56 16 -30 0 -53 -4 -50 -9z"/>
<path d="M3870 2900 c0 -5 9 -10 20 -10 11 0 20 5 20 10 0 6 -9 10 -20 10 -11
0 -20 -4 -20 -10z"/>
<path d="M1204 2889 c-13 -15 -23 -119 -13 -119 19 0 30 34 27 81 -2 41 -5 49
-14 38z"/>
<path d="M1960 2859 c0 -24 4 -38 10 -34 6 3 10 22 10 41 0 19 -4 34 -10 34
-5 0 -10 -18 -10 -41z"/>
<path d="M3027 2797 c6 -128 10 -140 12 -27 0 52 -3 101 -7 107 -5 7 -7 -29
-5 -80z"/>
<path d="M2193 2874 c-7 -3 -10 -11 -7 -19 5 -12 -29 -25 -78 -30 -30 -2 -33
-15 -4 -15 16 0 25 -4 21 -10 -3 -5 -1 -10 4 -10 6 0 11 3 11 8 0 4 17 7 37 7
31 0 38 4 38 20 0 11 3 25 7 31 12 19 -3 28 -29 18z"/>
<path d="M2346 2864 c-3 -9 -12 -14 -21 -10 -8 3 -15 0 -15 -5 0 -7 11 -9 25
-7 13 3 26 0 28 -6 2 -6 8 -8 12 -4 4 4 0 16 -8 28 -13 18 -15 19 -21 4z"/>
<path d="M3548 2873 c-10 -2 -18 -9 -18 -14 0 -6 -13 -15 -30 -20 -16 -6 -30
-15 -30 -20 0 -16 26 -10 45 11 10 11 24 20 30 20 7 0 18 7 25 15 13 15 9 16
-22 8z"/>
<path d="M1336 2841 c-20 -16 -33 -32 -29 -34 10 -7 80 49 72 57 -3 4 -23 -7
-43 -23z"/>
<path d="M2020 2835 c-7 -8 -8 -15 -2 -15 5 0 15 7 22 15 7 8 8 15 2 15 -5 0
-15 -7 -22 -15z"/>
<path d="M2671 2788 c-79 -32 -147 -60 -150 -64 -3 -4 25 -3 63 1 55 5 67 4
64 -7 -3 -7 -12 -12 -21 -12 -9 1 -18 -5 -21 -12 -3 -9 1 -13 12 -11 28 5 109
44 116 56 4 6 16 11 27 11 10 0 47 13 81 28 35 16 77 35 93 42 34 15 28 17
-60 22 -55 4 -75 -2 -204 -54z m151 22 c-13 -11 -40 -22 -60 -26 -20 -4 -39
-10 -42 -13 -8 -10 -49 -31 -60 -31 -21 0 -9 20 17 26 15 4 41 15 58 25 16 10
43 20 59 23 16 3 31 8 34 11 3 3 8 5 11 5 3 -1 -4 -9 -17 -20z"/>
<path d="M3656 2830 c-19 -6 -19 -7 2 -12 12 -4 24 -2 27 2 8 13 -8 18 -29 10z"/>
<path d="M3730 2830 c-12 -8 -9 -10 13 -10 16 0 26 4 22 10 -8 12 -16 12 -35
0z"/>
<path d="M840 2822 c0 -13 23 -32 39 -32 11 0 10 4 -4 20 -19 21 -35 26 -35
12z"/>
<path d="M2956 2801 c-13 -14 -14 -20 -4 -23 7 -3 -3 -10 -21 -16 -28 -10 -31
-10 -22 2 8 10 9 16 1 21 -5 3 -10 1 -10 -4 0 -6 -9 -11 -20 -11 -19 0 -19 -1
3 -37 12 -21 27 -44 34 -51 7 -7 13 -18 13 -23 0 -5 7 -9 16 -9 12 0 15 -6 10
-22 -6 -22 50 -158 65 -158 3 0 0 23 -7 52 -8 29 -14 102 -14 164 0 122 -11
151 -44 115z m9 -91 c9 -10 15 -26 12 -35 -8 -19 -37 -20 -37 -1 0 8 -5 16
-12 18 -13 5 -4 38 10 38 5 0 17 -9 27 -20z"/>
<path d="M3418 2796 c-8 -8 -22 -15 -32 -17 -9 -2 -17 -7 -17 -11 1 -5 1 -18
2 -30 l0 -23 10 24 c6 14 15 21 24 18 9 -4 12 -1 9 7 -3 7 5 17 17 23 14 6 19
12 12 16 -6 4 -18 1 -25 -7z"/>
<path d="M1063 2791 c-34 -3 -65 -10 -70 -15 -4 -5 8 -6 29 -2 20 4 39 2 42
-3 4 -5 18 -6 34 -2 15 4 34 6 42 3 13 -5 13 -3 1 11 -7 10 -14 16 -15 15 0 0
-29 -4 -63 -7z"/>
<path d="M902 2773 c2 -10 10 -17 16 -15 7 1 15 -5 18 -13 9 -22 19 -18 22 9
1 17 -5 25 -21 30 -34 9 -39 7 -35 -11z"/>
<path d="M835 2735 c-29 -43 -55 -64 -55 -45 0 13 -37 13 -45 0 -3 -5 2 -10
12 -10 11 0 25 -6 32 -12 11 -10 14 -10 18 0 6 15 23 16 23 1 0 -5 -13 -15
-30 -20 -28 -10 -49 -43 -36 -57 7 -6 63 52 88 91 13 19 34 97 26 97 -2 0 -16
-20 -33 -45z"/>
<path d="M1214 2769 c-10 -17 8 -29 40 -26 18 2 38 7 43 10 6 4 13 0 17 -8 3
-8 1 -15 -4 -15 -6 0 -10 -5 -10 -11 0 -7 31 -9 92 -7 81 3 93 5 96 22 2 10
-2 22 -10 27 -18 12 -111 11 -103 -1 3 -5 12 -7 20 -3 8 3 15 0 15 -6 0 -6 -6
-11 -12 -12 -7 0 -23 -2 -35 -3 -15 -2 -28 6 -38 20 -11 18 -24 22 -60 22 -24
0 -47 -4 -51 -9z m245 -35 c3 -16 1 -17 -13 -5 -19 16 -21 34 -3 29 6 -3 14
-13 16 -24z"/>
<path d="M2276 2771 c-4 -6 -13 -8 -21 -4 -8 3 -15 1 -15 -3 0 -5 -3 -19 -6
-31 -5 -18 -3 -21 15 -16 12 3 19 8 16 11 -3 3 2 14 12 24 9 10 14 21 11 24
-3 3 -9 1 -12 -5z"/>
<path d="M1165 2751 c-8 -14 33 -53 48 -44 5 3 3 9 -6 15 -9 5 -20 16 -25 25
-7 11 -11 12 -17 4z"/>
<path d="M1504 2748 c-3 -5 3 -12 15 -15 12 -3 21 -10 21 -15 0 -8 18 -5 59
10 8 3 12 1 8 -5 -8 -12 17 -36 26 -26 14 14 6 40 -15 51 -27 13 -106 13 -114
0z"/>
<path d="M1008 2726 c-4 -21 -1 -25 21 -25 14 0 33 -1 41 -2 32 -4 90 1 90 9
0 4 -23 6 -50 5 -40 -2 -54 2 -68 17 -22 26 -29 25 -34 -4z"/>
<path d="M2147 2729 c-9 -5 -22 -7 -29 -3 -7 4 -8 3 -4 -4 4 -7 -3 -14 -19
-18 -14 -3 -25 -11 -25 -16 0 -6 -7 -8 -15 -4 -8 3 -14 2 -13 -2 3 -9 -55 -67
-64 -64 -5 1 -7 -1 -6 -5 4 -11 -34 -53 -43 -48 -4 3 -13 -3 -20 -12 -10 -12
-10 -14 -1 -9 15 9 15 1 1 -25 -5 -11 -14 -17 -19 -14 -6 3 -7 -1 -3 -11 6
-15 7 -15 19 2 14 20 50 64 98 121 34 40 100 80 170 104 44 15 47 18 21 18
-16 0 -38 -4 -48 -10z"/>
<path d="M2421 2735 c-1 -10 62 -65 75 -65 4 0 -3 11 -16 25 -13 14 -29 25
-36 25 -7 0 -15 6 -17 13 -3 6 -6 8 -6 2z"/>
<path d="M2840 2731 c0 -5 -20 -31 -45 -59 l-46 -51 23 -15 c29 -20 42 -20 34
0 -5 13 -1 15 19 10 18 -5 25 -2 25 8 0 25 21 29 41 7 24 -26 24 -31 -6 -60
l-25 -23 58 -37 c31 -20 63 -41 70 -45 14 -9 -61 137 -85 166 -8 9 -16 22 -17
30 -3 17 -35 78 -41 78 -3 0 -5 -4 -5 -9z"/>
<path d="M912 2708 c6 -18 28 -21 28 -4 0 9 -7 16 -16 16 -9 0 -14 -5 -12 -12z"/>
<path d="M2124 2680 c-70 -36 -123 -93 -161 -169 -15 -31 -33 -63 -39 -71 -13
-16 -14 -18 -14 -47 0 -15 -2 -16 -10 -3 -6 9 -10 10 -10 3 0 -6 -3 -20 -6
-30 -5 -15 -4 -16 6 -3 9 12 10 10 5 -10 -4 -14 -16 -32 -27 -41 -16 -12 -19
-23 -15 -45 3 -16 4 -23 1 -16 -8 17 -30 -23 -39 -70 -6 -31 -5 -32 10 -14 8
11 15 29 16 40 0 21 1 21 8 1 5 -11 4 -29 -2 -39 -12 -24 -20 -133 -9 -120 12
13 34 133 27 144 -3 5 3 27 14 48 11 21 23 55 27 77 8 46 51 154 68 175 7 8
16 22 20 30 3 8 15 29 26 45 11 17 23 36 26 43 3 6 11 12 16 12 6 0 24 11 40
25 16 14 35 22 41 18 7 -3 8 -2 4 2 -4 5 7 17 25 27 18 9 28 17 22 18 -7 0
-38 -14 -70 -30z"/>
<path d="M1713 2683 c4 -3 7 -18 7 -34 0 -31 15 -36 55 -19 19 8 19 9 -2 9
-16 1 -23 7 -23 21 0 11 -4 20 -9 20 -5 0 -15 2 -23 3 -7 2 -10 2 -5 0z"/>
<path d="M2305 2653 c24 -33 33 -39 44 -30 12 10 14 9 8 -6 -4 -12 -3 -16 4
-11 6 4 15 0 20 -7 7 -12 9 -11 9 1 1 11 4 10 15 -4 8 -11 15 -15 15 -9 0 13
-25 35 -32 27 -3 -3 -16 8 -28 23 -13 15 -20 20 -17 11 4 -10 2 -18 -2 -18
-10 0 -25 31 -22 45 2 6 -1 7 -5 3 -4 -4 -14 -2 -23 5 -8 6 -2 -7 14 -30z"/>
<path d="M2390 2681 c0 -5 8 -11 18 -13 10 -3 19 0 19 6 0 7 -9 13 -19 13 -10
1 -18 -2 -18 -6z"/>
<path d="M2532 2683 c-20 -8 5 -32 28 -26 28 7 34 33 7 32 -12 0 -28 -3 -35
-6z"/>
<path d="M2231 2664 c-15 -11 -19 -20 -13 -26 13 -13 28 -4 35 22 6 24 7 24
-22 4z"/>
<path d="M1846 2646 c3 -9 11 -16 16 -16 13 0 5 23 -10 28 -7 2 -10 -2 -6 -12z"/>
<path d="M2085 2611 c-28 -30 -33 -39 -19 -37 11 2 19 8 19 14 0 6 11 20 24
31 13 12 22 23 19 26 -2 2 -21 -13 -43 -34z"/>
<path d="M3190 2633 c-24 -12 -24 -13 -3 -13 12 0 25 5 28 11 11 16 2 17 -25
2z"/>
<path d="M2262 2628 c-7 -7 -12 -16 -12 -21 0 -14 -29 -38 -42 -35 -15 3 -88
-70 -88 -87 0 -5 8 0 18 11 19 24 117 94 131 94 5 0 14 6 20 14 16 19 -10 41
-27 24z"/>
<path d="M2450 2620 c6 -11 16 -20 22 -20 6 0 3 9 -7 20 -10 11 -20 20 -22 20
-2 0 1 -9 7 -20z"/>
<path d="M2500 2612 c12 -18 24 -31 27 -28 3 2 -7 17 -22 33 l-28 28 23 -33z"/>
<path d="M2530 2631 c0 -4 8 -19 18 -32 30 -39 68 -111 82 -152 9 -28 15 -36
23 -28 13 13 -16 76 -75 164 -38 56 -48 66 -48 48z"/>
<path d="M3273 2619 c14 -8 22 -8 30 0 8 8 3 11 -18 11 -26 -1 -28 -2 -12 -11z"/>
<path d="M1891 2583 c-28 -32 -79 -141 -111 -233 -28 -81 -52 -260 -35 -253 7
2 15 30 18 61 9 82 51 236 86 314 16 36 27 69 24 72 -4 3 -2 6 3 6 6 0 20 14
32 30 28 37 15 39 -17 3z"/>
<path d="M1808 2582 c-29 -17 -39 -38 -14 -29 10 4 13 1 9 -9 -9 -23 -23 -16
-34 16 -7 19 -18 30 -30 30 -16 0 -19 -7 -19 -43 l0 -44 40 -1 c26 -1 40 2 40
11 0 7 14 29 31 50 33 40 23 48 -23 19z"/>
<path d="M2308 2593 c6 -2 12 -11 12 -18 0 -17 28 -27 47 -16 11 6 12 10 4 15
-6 4 -11 2 -11 -5 0 -7 -9 -3 -20 9 -12 12 -26 22 -33 21 -9 0 -9 -2 1 -6z"/>
<path d="M2719 2586 c16 -19 3 -111 -17 -128 -12 -11 12 -14 133 -18 112 -4
149 -8 153 -18 4 -11 -21 -13 -134 -9 -77 3 -147 3 -157 -2 -17 -6 -17 -8 -3
-20 9 -7 16 -24 16 -37 0 -12 5 -26 12 -30 8 -5 9 -2 5 9 -3 10 -4 24 -1 32 8
21 42 19 47 -2 4 -17 5 -17 6 0 1 10 9 17 20 17 11 0 22 6 24 13 9 21 27 -15
20 -40 -3 -14 -1 -23 6 -23 6 0 10 3 10 8 -4 24 3 42 16 42 20 0 32 -30 16
-40 -10 -5 -9 -9 3 -13 12 -5 16 0 16 23 0 29 2 30 43 27 41 -2 42 -3 42 -37
0 -29 -4 -35 -21 -35 -12 -1 -29 -7 -39 -15 -15 -12 -19 -12 -29 1 -14 19 -54
31 -62 18 -9 -16 -24 1 -24 27 0 31 -16 23 -22 -11 -6 -30 14 -45 62 -45 17 0
40 -5 51 -11 16 -8 25 -7 40 7 23 21 33 13 25 -19 -8 -32 -34 -42 -56 -22 -18
16 -50 20 -50 7 0 -15 38 -44 48 -38 5 3 14 0 20 -7 13 -16 13 -299 0 -291 -6
4 -5 -3 1 -14 6 -11 9 -48 7 -82 -3 -55 -1 -63 17 -69 20 -7 19 -8 -4 -16
l-24 -8 23 -4 c26 -5 30 -23 5 -23 -17 -1 -17 -1 0 -14 21 -16 22 -30 2 -22
-9 3 -15 0 -15 -10 0 -8 4 -13 9 -9 5 3 12 1 16 -5 3 -5 -1 -10 -9 -10 -9 0
-16 -4 -16 -10 0 -5 7 -10 15 -10 8 0 15 -4 15 -10 0 -5 -7 -10 -16 -10 -8 0
-12 -4 -9 -10 3 -5 14 -10 23 -10 16 0 17 24 14 331 -4 283 -2 332 11 342 18
15 29 92 20 152 -5 42 -9 46 -58 70 -29 13 -67 36 -83 50 -31 26 -62 25 -62
-1 0 -20 -27 -29 -45 -14 -35 29 -4 76 33 50 9 -7 -1 4 -22 24 -22 20 -48 36
-59 36 -16 0 -17 -3 -8 -14z m171 -116 c0 -5 -6 -10 -14 -10 -8 0 -18 5 -21
10 -3 6 3 10 14 10 12 0 21 -4 21 -10z"/>
<path d="M3802 2577 c-38 -13 -61 -26 -58 -33 2 -6 10 -252 16 -545 7 -294 16
-545 21 -559 4 -14 6 62 4 180 -3 113 -7 360 -10 549 -3 189 -7 348 -8 354 -2
12 65 29 76 18 8 -8 16 -308 23 -851 3 -179 7 -343 9 -365 7 -74 18 -125 25
-125 12 0 19 50 8 56 -5 4 -9 38 -7 78 1 39 -1 79 -5 88 -4 9 -3 25 2 35 9 15
11 15 16 3 2 -8 7 -22 9 -30 3 -8 6 -3 6 12 1 15 -3 29 -8 32 -13 8 -20 74
-23 216 -2 95 0 124 10 122 9 -1 12 16 10 60 l-1 63 -6 -55 -7 -55 -8 60 c-6
42 -6 60 3 63 8 3 8 9 1 23 -7 13 -7 19 0 19 5 0 10 7 10 16 0 8 -4 12 -10 9
-6 -4 -10 28 -10 88 0 52 -3 109 -6 126 -4 19 -2 31 4 31 6 0 13 -15 15 -32
l4 -33 1 37 c1 21 -3 39 -10 42 -10 5 -10 7 0 12 6 3 12 13 12 22 0 15 -2 15
-10 2 -8 -12 -10 -8 -11 15 -1 17 -3 66 -4 111 -2 44 -5 85 -7 91 -2 6 2 12 7
12 6 1 13 -15 16 -36 6 -38 6 -38 8 10 1 64 19 60 24 -5 l3 -53 2 58 c1 41 6
59 17 63 8 4 15 11 15 16 0 11 -12 8 -92 -16 -54 -17 -61 -14 -20 8 37 21 19
18 -56 -7z"/>
<path d="M2652 2549 c-1 -17 2 -28 7 -25 10 6 12 56 2 56 -4 0 -8 -14 -9 -31z"/>
<path d="M2822 2568 c2 -6 10 -14 16 -16 7 -2 10 2 6 12 -7 18 -28 22 -22 4z"/>
<path d="M2265 2560 c-3 -5 -1 -10 4 -10 6 0 27 -17 46 -37 19 -20 35 -31 34
-23 -1 21 -76 83 -84 70z"/>
<path d="M2537 2563 c-3 -4 7 -17 22 -27 l26 -20 -20 25 c-11 13 -21 25 -21
27 -1 2 -4 0 -7 -5z"/>
<path d="M3030 2550 c0 -5 15 -10 33 -10 24 0 28 3 17 10 -20 13 -50 13 -50 0z"/>
<path d="M3100 2525 c-7 -13 -21 -27 -32 -31 -11 -3 -18 -15 -18 -31 0 -17 4
-23 14 -20 8 3 18 -5 25 -20 8 -17 17 -23 27 -19 9 3 20 6 25 6 5 0 9 4 9 10
0 5 -6 7 -14 4 -7 -3 -26 6 -42 20 l-29 25 34 14 c21 9 29 16 20 19 -12 4 -12
9 -1 27 7 11 8 21 4 21 -5 0 -15 -11 -22 -25z"/>
<path d="M3448 2543 c-10 -2 -18 -9 -18 -14 0 -13 12 -11 34 6 20 15 16 17
-16 8z"/>
<path d="M2380 2510 c6 -11 8 -20 5 -20 -4 0 3 -12 14 -26 11 -15 18 -31 15
-36 -3 -5 -17 5 -30 23 -13 18 -24 26 -24 18 0 -8 21 -41 45 -73 25 -33 45
-63 45 -67 0 -4 5 -20 11 -36 10 -26 12 -27 19 -8 5 11 9 27 9 35 0 9 -4 8 -9
-5 -7 -17 -9 -15 -10 10 -1 15 -46 126 -67 163 -25 42 -44 60 -23 22z"/>
<path d="M666 2512 c15 -14 124 -52 124 -44 0 4 -27 17 -59 30 -61 23 -81 27
-65 14z"/>
<path d="M2496 2480 c22 -45 28 -52 19 -20 -4 14 -14 32 -22 40 -10 11 -9 5 3
-20z"/>
<path d="M3353 2500 c-13 -5 -23 -12 -23 -15 0 -4 3 -4 8 -2 4 3 30 1 57 -3
58 -9 66 -6 39 15 -22 16 -49 18 -81 5z"/>
<path d="M2077 2484 c-4 -4 -7 -14 -7 -23 0 -11 3 -12 11 -4 6 6 10 16 7 23
-2 6 -7 8 -11 4z"/>
<path d="M2560 2448 c4 -18 13 -53 20 -78 7 -26 13 -103 13 -185 0 -112 2
-132 10 -100 5 22 10 85 11 141 1 82 -4 115 -24 177 -25 77 -45 106 -30 45z"/>
<path d="M1730 2439 c0 -11 -5 -30 -11 -41 -9 -16 -8 -19 3 -16 7 3 15 13 17
24 1 10 10 27 19 37 14 16 13 17 -6 17 -16 0 -22 -6 -22 -21z"/>
<path d="M3375 2430 c-14 -6 -4 -9 35 -8 42 0 49 2 30 8 -32 10 -41 10 -65 0z"/>
<path d="M1873 2404 c-4 -11 -8 -12 -13 -4 -4 6 -7 -3 -7 -20 0 -16 1 -29 2
-27 10 11 34 67 30 67 -3 0 -8 -7 -12 -16z"/>
<path d="M617 2403 c-7 -7 -10 -163 -3 -163 17 0 35 14 29 23 -4 6 -9 41 -11
77 -4 70 -5 74 -15 63z"/>
<path d="M764 2369 c-17 -18 -36 -28 -46 -25 -12 2 -18 -2 -18 -12 0 -9 -10
-26 -22 -39 -40 -43 3 -25 61 25 77 66 74 65 181 72 l95 7 -111 1 -110 2 -30
-31z"/>
<path d="M1064 2393 c11 -11 196 -14 196 -3 0 6 -43 10 -102 10 -56 0 -98 -3
-94 -7z"/>
<path d="M1282 2388 c6 -16 33 -22 56 -13 14 5 14 7 2 15 -22 14 -62 12 -58
-2z"/>
<path d="M1383 2393 c-13 -2 -23 -8 -23 -12 0 -5 77 -9 170 -10 109 -1 170 2
170 9 0 6 -50 10 -134 10 -74 0 -140 2 -148 4 -7 2 -23 1 -35 -1z"/>
<path d="M2004 2358 c-8 -18 -22 -44 -29 -58 -20 -34 -19 -50 4 -50 10 0 44
-11 76 -25 50 -23 56 -24 53 -8 -3 16 -65 54 -112 68 -16 5 -17 8 -4 28 19 31
39 77 32 77 -3 0 -12 -15 -20 -32z"/>
<path d="M3186 2359 c-85 -36 -89 -39 -40 -34 22 2 42 4 47 4 4 1 6 6 5 12 -2
8 66 40 80 38 2 0 6 2 10 5 14 15 -39 2 -102 -25z"/>
<path d="M900 2353 c0 -5 -17 -19 -38 -30 -20 -12 -48 -33 -61 -47 -23 -25
-24 -28 -12 -78 15 -61 9 -292 -8 -311 -7 -9 -4 -16 10 -25 13 -8 19 -21 17
-35 -2 -18 -10 -22 -36 -22 -23 0 -31 -4 -27 -13 3 -8 8 -32 11 -55 3 -23 7
-52 10 -64 4 -21 1 -23 -33 -22 -21 0 -32 3 -25 6 14 6 17 143 3 143 -5 0 -17
3 -26 7 -15 5 -16 3 -6 -15 14 -26 18 -111 7 -134 -6 -14 -4 -18 13 -18 12 0
21 -5 21 -10 0 -6 7 -6 19 1 28 18 51 4 51 -31 0 -43 -2 -45 -32 -44 -16 0
-28 -3 -28 -8 0 -4 -7 -8 -15 -8 -8 0 -15 8 -15 17 0 13 -3 14 -12 5 -9 -9
-15 -9 -26 1 -13 10 -14 9 -4 -9 9 -16 25 -23 69 -28 31 -4 66 -9 78 -12 18
-4 20 0 20 51 0 40 -3 54 -12 50 -16 -5 -17 7 -2 22 9 9 11 279 5 573 -1 46 2
56 21 65 12 6 30 21 40 34 18 22 18 22 35 2 11 -13 13 -23 7 -27 -7 -4 -8
-114 -4 -330 l7 -324 -21 0 c-12 0 -21 6 -21 15 0 8 -4 15 -9 15 -10 0 -23
-42 -15 -50 5 -4 129 -4 449 3 250 6 265 7 265 21 0 14 -47 29 -54 17 -2 -3
-37 -6 -78 -6 l-73 0 -2 95 c-1 52 -4 141 -6 198 -4 100 -2 113 20 91 8 -8 16
-7 30 2 11 7 29 9 39 5 17 -6 16 -9 -7 -30 -27 -26 -59 -64 -59 -70 0 -2 7 -7
16 -10 11 -4 15 -2 11 8 -3 8 0 19 7 25 19 16 49 2 43 -20 -3 -10 0 -16 7 -13
20 7 38 -12 31 -35 -8 -27 -31 -27 -45 -1 -13 24 -26 26 -34 4 -4 -11 -2 -15
8 -11 19 7 40 -18 32 -38 -8 -21 -33 -19 -46 5 -12 23 -30 27 -30 6 0 -7 9
-16 20 -19 11 -3 20 -12 20 -20 0 -8 10 -17 21 -20 15 -4 20 -12 17 -24 -4
-13 1 -18 17 -18 12 0 21 5 18 10 -2 6 6 20 17 32 24 27 25 33 3 33 -9 0 -13
-3 -10 -7 9 -9 -12 -33 -30 -33 -21 0 -27 28 -9 45 9 9 16 13 16 8 0 -4 6 3
13 17 8 15 20 24 30 22 24 -4 21 5 -9 33 -17 15 -24 30 -20 40 8 23 41 14 40
-10 0 -14 7 -20 21 -20 15 0 21 5 18 16 -3 10 5 24 18 33 13 8 19 19 15 23 -4
4 -15 -3 -25 -16 -20 -26 -51 -24 -51 4 0 22 -27 18 -33 -5 -6 -24 -30 -26
-48 -4 -11 14 -10 18 5 30 11 7 23 11 27 8 5 -3 9 2 9 10 0 10 9 16 25 16 14
0 25 -4 25 -10 0 -5 7 -10 15 -10 8 0 15 5 15 11 0 7 12 10 30 7 19 -3 29 -1
27 6 -2 6 -25 11 -51 11 -31 0 -50 5 -56 15 -8 13 -11 12 -23 -4 -17 -23 -52
-17 -52 9 0 13 8 21 23 23 12 2 20 8 16 13 -3 6 0 16 6 25 15 18 40 1 40 -26
0 -13 6 -17 20 -13 12 3 19 12 18 22 -5 26 42 28 49 2 3 -12 9 -21 14 -21 17
0 9 22 -13 40 -22 18 -22 20 -6 36 14 14 20 15 32 5 13 -11 13 -9 3 13 -7 14
-20 27 -30 30 -26 7 -17 41 10 40 15 0 19 4 15 15 -5 16 -21 31 -33 31 -3 0
-5 -10 -5 -22 1 -32 -32 -36 -39 -5 -4 14 -13 24 -22 23 -9 0 -18 4 -20 10 -6
17 117 15 144 -2 20 -12 22 -12 17 1 -4 11 1 15 17 15 14 0 19 4 14 9 -13 12
-815 26 -815 14z m78 -25 c7 -7 12 -8 12 -4 0 5 7 3 15 -4 13 -11 14 -10 9 4
-5 12 0 16 20 16 14 0 26 -4 26 -9 0 -5 7 -8 16 -7 25 2 41 -29 25 -48 -15
-18 -51 -5 -51 19 0 22 -9 18 -32 -11 -11 -14 -26 -23 -32 -21 -6 3 -12 -4
-12 -14 0 -12 7 -19 19 -19 11 0 17 5 14 13 -2 6 3 17 12 24 20 14 55 -2 47
-23 -4 -10 0 -14 10 -12 9 2 21 -5 28 -14 9 -15 6 -23 -17 -43 -30 -28 -35
-40 -13 -32 7 3 19 0 26 -6 10 -9 11 -7 6 9 -7 23 16 50 33 39 7 -3 8 0 5 10
-10 24 14 47 37 34 29 -15 23 -30 -32 -83 -27 -27 -48 -50 -46 -53 6 -5 46 11
47 19 2 24 14 38 27 33 10 -3 13 -1 10 9 -3 8 0 19 7 25 19 16 49 2 43 -19 -3
-13 2 -17 18 -17 17 0 21 4 17 19 -3 14 2 21 17 25 24 6 29 33 6 33 -8 0 -15
-6 -15 -14 0 -7 -6 -18 -13 -24 -10 -8 -22 -1 -52 29 -35 37 -37 41 -22 56 13
14 19 14 32 3 9 -8 14 -22 11 -32 -3 -15 -1 -17 8 -9 7 6 16 8 19 4 4 -3 7 1
7 10 0 8 7 23 16 32 13 12 14 19 5 28 -8 8 -11 7 -11 -5 0 -28 -26 -41 -44
-23 -9 9 -16 21 -16 26 0 5 -4 9 -10 9 -5 0 -10 -5 -10 -11 0 -7 -8 -18 -17
-24 -15 -11 -22 -8 -50 20 -40 41 -40 45 -7 45 21 0 25 -4 19 -17 -5 -14 -3
-15 6 -6 6 6 18 9 25 6 8 -3 14 0 14 6 0 6 9 11 20 11 11 0 20 -4 20 -10 0
-14 26 -13 51 3 34 20 47 -10 48 -116 1 -51 2 -102 2 -115 2 -37 -9 -54 -33
-50 -30 4 -37 38 -9 45 12 3 21 12 21 19 0 22 -11 17 -47 -23 -31 -36 -37 -38
-94 -39 -43 -1 -62 3 -66 12 -7 19 -29 18 -37 -1 -8 -22 -47 -19 -53 5 -3 11
-10 17 -15 14 -5 -3 -7 -12 -5 -19 4 -8 -6 -12 -31 -11 -42 1 -51 24 -15 41
21 11 18 38 -3 36 -5 -1 -10 10 -12 24 -3 20 2 28 17 32 20 5 19 34 -2 30 -20
-4 -20 46 0 61 17 12 17 14 1 23 -10 6 -18 17 -18 24 0 18 31 20 48 3z m418 0
c4 -6 -1 -17 -11 -24 -16 -12 -16 -15 6 -43 13 -16 32 -33 42 -36 12 -4 17
-14 14 -25 -3 -13 0 -16 14 -13 25 7 24 20 -2 33 -25 14 -23 56 3 54 10 -1 14
4 11 12 -7 19 -12 18 -31 -7 -12 -13 -23 -18 -35 -13 -26 10 -17 35 20 55 26
15 35 16 45 5 7 -7 18 -11 24 -9 16 5 35 -22 28 -41 -3 -9 -12 -16 -20 -16 -8
0 -14 -2 -14 -4 0 -2 -3 -12 -6 -20 -5 -12 -1 -16 17 -14 18 2 25 -3 27 -19 2
-15 10 -23 22 -23 27 0 35 -19 17 -38 -13 -13 -19 -13 -31 -2 -9 7 -16 19 -16
26 0 8 -7 14 -16 14 -8 0 -12 -5 -9 -10 4 -6 -18 -35 -49 -66 -69 -70 -90 -70
-93 1 -1 28 -4 84 -6 125 -2 41 0 83 5 93 10 19 33 23 44 5z m-251 -62 c16
-12 17 -16 6 -30 -26 -31 -62 -9 -47 29 7 19 17 19 41 1z m415 -1 c15 -18 6
-45 -14 -45 -20 0 -29 16 -21 40 8 24 18 25 35 5z m49 -49 c9 -11 8 -18 -5
-30 -12 -13 -19 -14 -30 -5 -17 14 -18 36 -1 42 20 9 24 8 36 -7z m-585 -199
c-2 -14 1 -15 12 -6 8 6 14 8 14 3 0 -5 4 -3 9 5 5 8 19 16 30 18 28 4 28 -27
1 -34 -25 -7 -26 -29 -1 -36 14 -3 18 -1 14 9 -7 19 16 46 33 40 8 -3 13 0 11
7 -3 19 42 20 61 1 16 -16 17 -16 20 -1 4 20 42 23 60 5 8 -8 15 -8 26 1 8 7
16 8 19 4 6 -11 3 -46 -7 -61 -4 -6 -3 -12 1 -12 5 0 10 -57 12 -127 2 -71 4
-141 5 -158 l1 -30 -85 -1 c-47 -1 -138 -5 -202 -8 -65 -4 -118 -4 -118 -2 0
14 14 36 22 36 5 0 18 10 29 23 l19 22 19 -22 c24 -28 33 -29 49 -2 9 15 19
18 35 13 19 -6 20 -5 8 10 -16 19 -14 22 19 34 l24 9 -27 23 c-30 26 -35 48
-12 56 18 7 48 -15 42 -30 -3 -7 4 -12 14 -12 25 0 24 6 -8 32 -31 25 -26 60
7 51 22 -6 23 -5 14 17 -9 22 -31 20 -39 -4 -8 -25 -31 -26 -44 -1 -13 24 8
44 35 34 16 -6 17 -4 6 9 -10 12 -9 18 3 28 8 7 21 10 30 6 12 -4 13 -2 2 14
-15 25 -23 25 -30 0 -3 -11 -11 -20 -19 -20 -7 0 -18 -10 -23 -22 -6 -13 -17
-23 -25 -23 -8 0 -19 10 -25 23 -12 27 -31 29 -38 3 -3 -14 0 -17 12 -14 10 2
23 -3 31 -12 12 -14 10 -20 -13 -41 -31 -28 -33 -34 -12 -34 8 0 15 5 15 11 0
20 33 39 47 27 20 -16 16 -28 -22 -65 -30 -29 -38 -33 -51 -22 -8 7 -12 19 -9
27 5 13 3 13 -17 0 -33 -22 -34 -37 -2 -35 39 3 39 -13 0 -57 -23 -28 -38 -37
-50 -33 -27 11 -17 52 12 51 l23 -1 -25 24 c-29 26 -35 70 -11 79 14 6 14 8
-1 18 -21 16 -15 61 8 60 10 -1 14 4 11 13 -3 8 -11 12 -18 9 -8 -3 -15 6 -18
21 -3 19 2 32 21 50 30 27 68 27 66 0z m-224 -259 c0 -18 3 -50 6 -70 5 -31 4
-38 -10 -38 -13 0 -16 12 -16 70 0 40 4 70 10 70 6 0 10 -15 10 -32z m329 16
c6 -5 -62 -82 -74 -83 -6 -1 -16 8 -22 18 -10 15 -9 22 6 35 10 9 21 13 26 9
4 -5 5 -2 1 5 -12 20 4 34 33 27 14 -4 28 -8 30 -11z"/>
<path d="M1025 2219 c7 -11 -17 -49 -31 -49 -7 0 -14 -9 -17 -21 -4 -16 -3
-18 9 -8 10 8 14 8 14 0 0 -6 5 -11 11 -11 6 0 8 8 4 19 -7 22 19 46 41 37 13
-5 14 -4 6 7 -7 8 -9 16 -7 19 3 3 -3 8 -15 11 -11 3 -18 1 -15 -4z"/>
<path d="M1026 2115 c-3 -9 0 -15 9 -15 8 0 15 7 15 15 0 8 -4 15 -9 15 -5 0
-11 -7 -15 -15z"/>
<path d="M1182 2103 c-17 -19 -21 -28 -13 -36 9 -9 13 -6 17 11 4 13 14 22 26
22 11 0 18 5 16 12 -7 20 -22 17 -46 -9z"/>
<path d="M1370 2206 c0 -8 9 -18 21 -21 15 -5 19 -13 16 -27 -4 -13 -1 -18 8
-15 7 3 18 0 24 -6 7 -7 11 -7 11 -1 0 11 -66 84 -75 84 -3 0 -5 -6 -5 -14z"/>
<path d="M1370 2117 c0 -8 7 -14 15 -14 8 0 15 6 15 14 0 7 -7 13 -15 13 -8 0
-15 -6 -15 -13z"/>
<path d="M987 1981 c-3 -14 0 -17 14 -14 10 3 15 11 12 19 -7 20 -20 17 -26
-5z"/>
<path d="M1222 1960 c-32 -37 -32 -38 -9 -36 17 1 23 6 19 18 -4 18 30 34 49
23 6 -4 5 2 -3 14 -7 12 -15 21 -18 20 -3 0 -20 -18 -38 -39z"/>
<path d="M986 1894 c-4 -11 -2 -15 8 -11 7 3 19 0 26 -6 10 -10 10 -7 1 11
-14 26 -26 28 -35 6z"/>
<path d="M1246 1894 c-3 -9 -6 -16 -6 -17 0 -1 11 -2 23 -2 18 0 23 5 19 18
-5 21 -28 22 -36 1z"/>
<path d="M1206 1854 c-8 -22 -8 -26 3 -20 14 9 41 -5 41 -21 0 -18 -50 -73
-66 -73 -7 0 -14 -8 -16 -17 -4 -13 1 -18 17 -18 14 0 21 5 18 13 -3 7 0 19 7
27 18 21 53 1 45 -26 -5 -15 -3 -17 11 -12 11 4 23 -2 35 -18 10 -13 19 -19
19 -13 0 5 -19 29 -41 52 -34 34 -40 44 -30 56 7 8 19 12 27 9 10 -3 12 0 8
10 -3 9 4 21 17 31 16 11 20 19 13 26 -7 7 -15 2 -24 -15 -17 -31 -24 -31 -48
0 -23 29 -28 30 -36 9z"/>
<path d="M1296 1764 c-4 -10 -1 -14 6 -12 15 5 23 28 10 28 -5 0 -13 -7 -16
-16z"/>
<path d="M1130 1680 c0 -5 7 -10 15 -10 8 0 15 5 15 10 0 6 -7 10 -15 10 -8 0
-15 -4 -15 -10z"/>
<path d="M2937 2345 c-4 -8 -2 -17 3 -20 6 -4 10 -4 10 -1 0 2 3 11 6 20 3 9
2 16 -4 16 -5 0 -12 -7 -15 -15z"/>
<path d="M2771 2328 c-1 -12 -9 -18 -26 -18 -28 0 -32 -12 -10 -30 10 -8 15
-9 15 -1 0 7 8 8 25 1 25 -10 33 -2 16 16 -5 5 -11 18 -14 29 -4 16 -5 17 -6
3z"/>
<path d="M3345 2330 c-38 -3 -101 -16 -140 -29 -38 -13 -76 -25 -84 -27 -11
-4 -13 -21 -8 -87 4 -45 10 -239 13 -430 6 -310 9 -348 23 -345 17 4 23 54 8
74 -9 14 9 67 21 60 5 -3 9 -34 10 -69 2 -61 1 -65 -23 -71 -14 -4 -25 -11
-25 -17 0 -8 4 -8 14 0 8 7 22 11 32 9 15 -3 17 6 15 70 -2 67 -1 72 18 72 19
0 21 -6 21 -70 0 -58 3 -70 16 -70 11 0 14 5 9 18 -4 9 -9 41 -12 71 l-6 54
26 -5 c34 -7 36 8 3 16 -22 5 -25 13 -29 59 l-3 52 -2 -52 -2 -52 -40 1 -40 0
-1 67 c-1 36 -2 113 -3 171 l-1 104 25 0 c14 0 24 -6 22 -12 -3 -18 25 -15 32
3 3 8 13 15 23 15 17 1 17 1 1 11 -14 8 -18 24 -18 74 0 36 -4 65 -9 65 -6 0
-7 -29 -4 -70 l6 -70 -47 0 c-47 0 -55 7 -34 28 9 9 9 12 0 12 -7 0 -12 8 -12
18 0 10 7 19 15 19 10 0 15 -11 15 -35 0 -20 3 -32 8 -28 4 4 7 43 7 87 l0 79
-26 -5 -26 -6 -6 83 c-3 46 -4 85 -2 87 10 9 25 -54 25 -100 0 -39 3 -49 16
-49 15 0 16 10 10 80 l-6 80 25 0 c15 0 25 -5 24 -12 -1 -7 -1 -50 0 -95 1
-69 4 -83 17 -83 12 0 14 3 6 13 -15 18 -14 189 1 184 7 -2 20 2 30 11 15 14
17 13 17 -1 0 -8 -3 -17 -8 -19 -4 -1 -5 -19 -1 -38 5 -34 6 -33 19 28 15 65
24 74 46 45 9 -11 17 -14 21 -8 16 20 43 16 53 -7 9 -23 9 -23 9 -1 1 14 8 23
23 25 12 2 23 8 25 15 4 12 -4 12 -132 3z m-195 -281 c0 -17 -4 -28 -10 -24
-5 3 -10 17 -10 31 0 13 5 24 10 24 6 0 10 -14 10 -31z"/>
<path d="M3930 2277 c0 -36 4 -69 10 -72 11 -7 7 121 -4 132 -3 3 -6 -23 -6
-60z"/>
<path d="M3072 2311 c-11 -7 -10 -10 3 -15 22 -8 22 -8 22 9 0 17 -6 18 -25 6z"/>
<path d="M2486 2264 c-3 -9 -4 -20 0 -25 3 -5 -2 -9 -10 -9 -26 0 -29 -21 -7
-44 12 -12 21 -33 21 -47 0 -18 2 -21 9 -9 6 8 7 19 3 24 -3 6 -5 37 -4 68 2
59 -1 70 -12 42z"/>
<path d="M700 2244 c0 -14 5 -24 11 -22 6 2 10 7 10 11 -1 4 -1 14 -1 22 0 8
-4 15 -10 15 -5 0 -10 -12 -10 -26z"/>
<path d="M2752 2235 c2 -16 8 -31 13 -33 17 -5 17 22 0 43 -15 19 -15 19 -13
-10z"/>
<path d="M3375 2240 c-28 -9 -51 -24 -53 -33 -4 -18 37 -44 47 -30 8 13 70 43
88 43 7 0 13 9 13 20 0 25 -24 25 -95 0z"/>
<path d="M2786 2202 c2 -39 5 -48 23 -50 26 -4 26 -7 -2 50 l-23 47 2 -47z"/>
<path d="M2308 2222 c-21 -9 -38 -20 -38 -24 0 -4 37 -5 83 -1 85 6 118 23 69
34 -46 11 -75 9 -114 -9z"/>
<path d="M2636 2153 c-4 -49 -8 -110 -11 -138 -5 -48 -4 -49 10 -22 8 15 14
49 14 75 -1 26 1 73 3 105 2 32 1 60 -3 63 -4 2 -10 -35 -13 -83z"/>
<path d="M2816 2218 c3 -4 11 -8 19 -8 8 0 18 -18 24 -42 l11 -43 -5 43 c-4
28 -2 41 5 37 6 -3 7 0 4 10 -4 9 -17 14 -34 13 -16 -1 -26 -6 -24 -10z"/>
<path d="M1691 2170 c-8 -27 -9 -46 -2 -58 9 -15 10 -15 9 3 0 11 3 37 7 58
10 49 1 47 -14 -3z"/>
<path d="M2726 2178 c-4 -16 -5 -36 -1 -45 5 -10 7 -27 6 -38 -1 -18 0 -17 12
4 20 34 30 2 11 -34 -17 -32 -17 -38 -4 -30 6 4 10 -11 10 -37 0 -31 -3 -39
-10 -28 -6 10 -10 11 -10 3 0 -7 9 -18 19 -25 10 -6 17 -18 14 -25 -3 -7 -1
-13 4 -13 5 0 10 33 11 73 3 81 -15 158 -34 150 -9 -3 -14 8 -16 34 -4 37 -4
37 -12 11z"/>
<path d="M3903 2135 c0 -33 2 -45 4 -27 2 18 2 45 0 60 -2 15 -4 0 -4 -33z"/>
<path d="M3938 2067 c4 -196 8 -214 10 -45 1 86 -1 159 -5 161 -5 3 -7 -50 -5
-116z"/>
<path d="M3301 2164 c-1 -12 -11 -26 -23 -32 l-23 -12 25 3 25 2 2 -100 c1
-55 5 -228 9 -384 4 -207 3 -282 -5 -277 -6 4 -11 2 -11 -3 0 -6 8 -11 18 -11
15 0 17 11 17 93 0 85 1 92 20 92 17 0 20 -7 21 -45 0 -25 5 -47 10 -50 4 -3
7 19 5 48 -2 50 -2 52 24 52 26 0 26 -1 24 -57 -2 -33 1 -57 7 -55 5 2 8 10 6
18 -2 8 4 14 13 14 10 0 15 10 15 34 0 19 3 41 6 50 4 12 0 16 -15 16 -19 0
-21 5 -21 75 0 48 -4 75 -11 75 -7 0 -10 -25 -8 -77 4 -75 3 -78 -18 -81 -22
-3 -23 -1 -23 88 l0 92 47 -3 c31 -2 48 1 51 10 3 9 -9 12 -44 11 -27 -1 -64
-1 -81 -1 l-33 1 0 90 c0 83 1 90 20 90 11 0 20 -6 20 -12 0 -9 4 -8 10 2 16
25 11 32 -22 28 l-33 -3 -1 95 c-1 52 -6 106 -12 120 -10 23 -11 23 -11 4z
m76 -524 c1 -89 1 -90 -23 -90 -24 0 -24 2 -24 90 0 87 1 90 23 90 21 0 22 -4
24 -90z m93 -124 c0 -14 -4 -28 -10 -31 -6 -4 -10 7 -10 24 0 17 5 31 10 31 6
0 10 -11 10 -24z"/>
<path d="M1920 2137 c0 -11 16 -15 71 -16 39 -1 75 -4 80 -7 5 -3 9 -1 9 4 0
5 -21 13 -47 16 -27 4 -63 10 -80 13 -25 4 -33 2 -33 -10z"/>
<path d="M3354 2138 c-3 -5 -4 -8 -2 -8 50 -7 128 -3 128 7 0 13 -118 14 -126
1z"/>
<path d="M1803 2126 c-6 -7 -11 -31 -11 -52 -1 -22 -3 -75 -6 -119 l-6 -80 15
50 c10 36 13 41 11 18 -1 -18 2 -29 7 -26 5 3 6 19 3 37 -8 37 -8 43 0 124 6
66 5 69 -13 48z"/>
<path d="M2831 2080 c1 -27 6 -47 10 -44 12 7 11 94 -1 94 -5 0 -9 -22 -9 -50z"/>
<path d="M631 2081 c-1 -27 2 -32 11 -23 18 18 55 15 67 -5 9 -16 10 -16 11 5
0 19 -5 22 -39 22 -29 0 -41 5 -44 18 -3 9 -5 1 -6 -17z"/>
<path d="M2270 2103 c0 -15 152 -42 168 -30 22 17 13 25 -30 23 -24 0 -64 3
-90 8 -30 5 -48 5 -48 -1z"/>
<path d="M3459 2104 c-1 -5 0 -42 1 -81 l2 -73 -31 0 c-17 0 -31 -4 -31 -10 0
-5 7 -10 15 -10 12 0 15 -15 15 -77 0 -42 3 -73 7 -70 3 4 5 35 4 68 -2 42 1
59 8 54 6 -3 11 -30 11 -60 0 -30 4 -56 9 -60 9 -5 4 315 -5 324 -2 2 -4 0 -5
-5z"/>
<path d="M3354 2083 c3 -10 7 -40 7 -66 1 -26 6 -50 11 -53 5 -3 8 26 6 65 -1
52 -6 71 -16 71 -8 0 -11 -7 -8 -17z"/>
<path d="M3400 2090 c0 -5 9 -10 20 -10 11 0 20 5 20 10 0 6 -9 10 -20 10 -11
0 -20 -4 -20 -10z"/>
<path d="M1876 2064 c-4 -14 -5 -28 -3 -31 3 -2 8 8 11 23 4 14 5 28 3 31 -3
2 -8 -8 -11 -23z"/>
<path d="M2875 2079 c3 -9 -1 -22 -10 -29 -16 -13 -21 -35 -6 -26 5 3 21 -4
36 -16 l28 -21 -12 21 c-6 12 -18 22 -26 22 -18 0 -19 12 -3 28 9 9 9 15 -1
25 -10 10 -11 9 -6 -4z"/>
<path d="M2687 2073 c-6 -12 -7 -366 0 -360 9 9 39 -25 62 -71 12 -23 26 -40
32 -37 5 4 9 3 8 -2 -5 -31 29 -73 59 -72 14 0 14 2 -3 8 -20 9 -32 28 -55 88
-7 18 -16 30 -20 28 -5 -3 -11 -1 -15 5 -3 5 0 10 7 10 10 0 11 2 0 8 -7 5
-10 17 -6 28 4 14 3 15 -4 5 -7 -9 -12 -10 -16 -2 -4 6 -12 9 -17 6 -5 -4 -9
-3 -9 2 0 4 -4 25 -9 45 -9 37 -8 38 18 32 19 -4 22 -3 11 5 -8 5 -11 13 -8
16 4 4 2 19 -3 34 -6 14 -13 71 -16 126 -5 100 -7 113 -16 98z"/>
<path d="M3026 2071 c-4 -5 -2 -20 3 -33 9 -21 10 -21 10 10 1 32 -3 39 -13
23z"/>
<path d="M1670 2042 c0 -12 4 -22 9 -22 10 0 9 26 -2 36 -4 4 -7 -2 -7 -14z"/>
<path d="M3433 2015 c0 -27 2 -38 4 -22 2 15 2 37 0 50 -2 12 -4 0 -4 -28z"/>
<path d="M2496 2035 c-3 -9 -6 -26 -5 -38 1 -14 4 -9 9 13 9 37 7 52 -4 25z"/>
<path d="M3587 2033 c-12 -11 -8 -63 5 -63 9 0 9 -3 0 -12 -16 -16 -16 -71 1
-65 6 2 11 12 9 21 -2 10 5 24 14 31 16 11 16 13 -4 31 -15 12 -20 25 -16 41
6 23 3 29 -9 16z"/>
<path d="M1857 2005 c-3 -11 -8 -36 -11 -55 -5 -30 -3 -29 9 10 8 25 14 49 12
55 -2 5 -6 1 -10 -10z"/>
<path d="M2833 1990 c0 -27 3 -30 34 -30 18 0 33 4 33 8 0 15 -25 40 -46 46
-18 5 -21 2 -21 -24z"/>
<path d="M1676 1983 c0 -16 -5 -44 -11 -64 -7 -19 -15 -60 -19 -90 -3 -30 -9
-65 -12 -78 -5 -18 -4 -23 7 -19 7 2 14 18 15 34 3 38 10 86 23 153 13 64 14
91 3 91 -4 0 -7 -12 -6 -27z"/>
<path d="M632 1992 c-6 -5 -12 -19 -12 -33 0 -13 -2 -39 -6 -56 -6 -32 -5 -33
27 -34 19 0 47 -2 62 -3 38 -2 56 9 39 26 -10 10 -16 10 -33 0 -17 -11 -26
-11 -50 0 -31 14 -37 24 -16 30 8 2 10 15 7 40 -4 27 -9 35 -18 30z"/>
<path d="M718 1984 c-5 -4 -8 -22 -8 -41 0 -31 2 -33 33 -32 22 1 25 3 10 6
-17 3 -23 12 -25 40 -2 19 -6 31 -10 27z"/>
<path d="M2908 1947 c-3 -29 -6 -32 -40 -35 -28 -2 -36 -7 -31 -18 4 -11 14
-13 36 -8 19 4 27 3 23 -4 -3 -6 -2 -21 3 -34 6 -15 5 -31 -1 -44 -10 -17 -9
-18 6 -3 14 13 15 21 6 44 -8 22 -8 30 2 37 10 6 10 8 -1 8 -12 0 -11 3 1 18
24 27 31 59 14 65 -11 4 -16 -3 -18 -26z"/>
<path d="M2498 1955 c-24 -71 -36 -115 -32 -115 2 0 9 10 14 23 7 18 9 19 9 4
1 -31 -30 -129 -54 -172 -20 -36 -22 -46 -13 -100 5 -33 10 -70 11 -82 4 -43
17 -10 16 40 -2 77 7 155 19 169 6 7 10 15 9 18 0 3 7 37 17 76 16 67 20 185
4 139z"/>
<path d="M2020 1945 c-10 -12 -10 -15 4 -15 9 0 16 7 16 15 0 8 -2 15 -4 15
-2 0 -9 -7 -16 -15z"/>
<path d="M2266 1936 c3 -8 0 -25 -6 -38 -11 -22 -10 -22 4 -4 18 23 20 42 6
51 -5 3 -7 0 -4 -9z"/>
<path d="M3640 1927 c0 -9 -6 -18 -12 -21 -7 -3 -2 -4 12 -3 26 2 35 27 13 35
-7 2 -13 -3 -13 -11z"/>
<path d="M526 1889 c-8 -11 -13 -28 -12 -37 3 -18 46 -30 46 -13 0 6 4 11 9
11 5 0 7 -10 3 -22 -3 -14 -2 -19 6 -14 15 9 15 28 1 60 -16 34 -36 39 -53 15z"/>
<path d="M1856 1831 c2 -79 21 -189 36 -206 4 -5 8 -20 8 -33 0 -13 3 -21 8
-18 10 6 6 74 -6 89 -9 11 -22 112 -25 203 0 22 -6 41 -12 41 -8 0 -11 -26 -9
-76z"/>
<path d="M2052 1894 c10 -9 58 -12 58 -3 0 5 -14 9 -32 9 -17 0 -29 -3 -26 -6z"/>
<path d="M2765 1890 c-3 -5 -1 -10 4 -10 6 0 11 -5 11 -11 0 -5 -4 -7 -10 -4
-13 8 -13 -4 1 -44 16 -47 24 -38 21 24 -4 52 -13 68 -27 45z"/>
<path d="M3369 1894 c-8 -15 2 -124 12 -124 5 0 9 21 8 48 0 49 -12 92 -20 76z"/>
<path d="M2175 1880 c-4 -6 9 -10 32 -9 30 0 34 2 18 9 -27 12 -43 12 -50 0z"/>
<path d="M3181 1743 c0 -84 2 -153 7 -153 4 0 6 51 4 114 l-4 114 24 -5 c19
-4 24 0 24 16 0 23 -35 31 -37 9 -1 -7 -5 3 -9 22 -5 21 -8 -24 -9 -117z"/>
<path d="M1545 1864 c-19 -19 -15 -27 9 -18 9 3 16 12 16 20 0 18 -5 18 -25
-2z"/>
<path d="M1787 1795 c3 -44 6 -86 6 -92 0 -7 4 -13 8 -13 9 0 -1 137 -12 165
-4 11 -5 -16 -2 -60z"/>
<path d="M2600 1862 c0 -5 6 -17 14 -27 13 -18 14 -18 9 8 -5 24 -23 39 -23
19z"/>
<path d="M2832 1848 c1 -13 6 -29 11 -35 6 -9 6 -13 -1 -13 -16 0 -2 -38 17
-43 14 -4 14 -5 -1 -6 -14 -1 -18 -10 -18 -38 0 -34 4 -40 43 -61 l42 -23 -26
25 c-23 21 -26 32 -24 70 2 25 -1 46 -6 46 -13 0 -11 27 3 49 15 24 4 51 -21
51 -14 0 -19 -6 -19 -22z"/>
<path d="M2115 1851 c-10 -18 17 -23 33 -7 15 15 15 16 -5 16 -12 0 -24 -4
-28 -9z"/>
<path d="M1706 1813 c-3 -16 -9 -39 -12 -52 -5 -17 -4 -22 4 -17 14 8 16 -6 3
-19 -8 -10 -23 -110 -15 -102 13 12 51 170 47 192 -7 33 -19 32 -27 -2z"/>
<path d="M3943 1805 c0 -22 2 -30 4 -17 2 12 2 30 0 40 -3 9 -5 -1 -4 -23z"/>
<path d="M1960 1822 c0 -10 29 -22 65 -27 11 -2 38 -8 60 -14 58 -14 197 -17
220 -3 16 9 6 10 -50 7 -84 -5 -175 8 -272 39 -13 4 -23 3 -23 -2z"/>
<path d="M2554 1796 c-3 -21 -4 -39 -1 -42 2 -3 8 11 11 32 4 20 5 38 2 41 -2
3 -8 -11 -12 -31z"/>
<path d="M540 1805 c0 -7 50 -54 67 -63 9 -5 9 -18 3 -47 -8 -37 -7 -42 22
-72 42 -44 53 -32 22 23 -25 44 -26 61 -7 110 5 14 2 16 -17 11 -12 -3 -29 0
-36 6 -41 37 -54 44 -54 32z"/>
<path d="M1558 1793 c-25 -6 -23 -33 2 -33 13 0 20 7 20 20 0 11 -1 19 -2 19
-2 -1 -11 -3 -20 -6z"/>
<path d="M3913 1760 c0 -25 2 -35 4 -22 2 12 2 32 0 45 -2 12 -4 2 -4 -23z"/>
<path d="M3214 1784 c-11 -5 -7 -53 5 -55 42 -5 81 -3 81 3 0 4 -16 8 -36 8
-34 0 -36 2 -30 25 6 24 2 28 -20 19z"/>
<path d="M1386 1772 c-3 -6 1 -13 10 -16 23 -9 28 -2 10 13 -8 7 -17 8 -20 3z"/>
<path d="M2770 1752 c0 -5 7 -15 15 -22 8 -7 15 -8 15 -2 0 5 -7 15 -15 22 -8
7 -15 8 -15 2z"/>
<path d="M1507 1730 c-3 -11 -15 -24 -28 -28 l-23 -9 22 -12 c17 -9 21 -9 16
2 -3 8 3 20 12 28 14 12 19 10 35 -10 11 -13 22 -21 26 -17 4 3 -3 15 -15 26
-12 12 -22 25 -22 30 0 18 -18 10 -23 -10z"/>
<path d="M863 1705 c0 -22 2 -30 4 -17 2 12 2 30 0 40 -3 9 -5 -1 -4 -23z"/>
<path d="M1411 1714 c-12 -14 -20 -29 -16 -32 4 -4 11 1 16 11 6 9 19 17 29
17 13 0 18 5 14 15 -8 21 -17 19 -43 -11z"/>
<path d="M1732 1704 c-17 -63 -18 -77 -4 -81 6 -3 12 0 12 6 0 20 19 11 23
-11 3 -13 4 -6 4 14 -1 20 -4 35 -8 32 -4 -2 -9 7 -11 21 -3 13 -1 26 3 27 5
2 4 9 0 17 -7 11 -12 4 -19 -25z"/>
<path d="M3020 1731 c0 -16 54 -20 70 -5 12 12 9 14 -28 14 -23 0 -42 -4 -42
-9z"/>
<path d="M3940 1723 c0 -12 5 -25 10 -28 13 -8 13 15 0 35 -8 12 -10 11 -10
-7z"/>
<path d="M1610 1676 c-23 -80 -23 -81 -12 -71 6 6 14 26 17 45 3 19 13 38 21
43 18 10 18 24 0 24 -8 0 -19 -19 -26 -41z"/>
<path d="M3293 1635 c0 -44 2 -61 4 -37 2 23 2 59 0 80 -2 20 -4 1 -4 -43z"/>
<path d="M3460 1645 c0 -40 4 -64 10 -60 11 7 10 114 -2 121 -4 3 -8 -25 -8
-61z"/>
<path d="M568 1694 c-3 -5 -2 -20 2 -34 6 -24 6 -24 12 -4 6 22 -6 53 -14 38z"/>
<path d="M1630 1641 c-12 -24 -13 -51 -1 -51 5 0 11 16 13 35 5 40 3 43 -12
16z"/>
<path d="M1837 1605 c3 -34 12 -67 21 -75 13 -13 14 -13 8 3 -3 10 -9 37 -12
60 -11 68 -23 77 -17 12z"/>
<path d="M2686 1635 c4 -16 14 -38 22 -47 18 -21 40 -25 23 -5 -6 8 -9 16 -6
18 2 3 -7 18 -21 34 l-24 30 6 -30z"/>
<path d="M2841 1634 c2 -33 27 -96 43 -106 6 -4 34 -8 61 -8 40 -1 46 -3 32
-11 -14 -8 -16 -14 -6 -25 20 -24 29 -16 29 26 0 34 -3 40 -21 40 -11 0 -30
-5 -41 -11 -14 -7 -18 -7 -14 0 4 5 -6 17 -21 25 -20 11 -23 15 -10 16 20 0
23 20 3 20 -8 0 -17 9 -21 19 -3 11 -12 25 -20 31 -13 10 -15 8 -14 -16z"/>
<path d="M3070 1616 c0 -14 5 -28 10 -31 6 -3 10 5 10 19 0 14 -4 28 -10 31
-6 3 -10 -5 -10 -19z"/>
<path d="M3953 1575 c0 -38 2 -53 4 -32 2 20 2 52 0 70 -2 17 -4 1 -4 -38z"/>
<path d="M505 1621 c-3 -6 11 -13 30 -17 38 -7 51 -2 40 15 -8 14 -62 14 -70
2z"/>
<path d="M1937 1614 c3 -8 29 -27 57 -41 60 -30 59 -27 -11 21 -30 21 -50 29
-46 20z"/>
<path d="M1720 1592 c0 -10 27 -42 35 -42 3 0 1 10 -4 22 -8 23 -31 37 -31 20z"/>
<path d="M1576 1573 c-15 -37 -18 -161 -6 -248 15 -109 17 -131 19 -197 0 -28
4 -49 7 -46 7 8 11 318 3 318 -3 0 -6 -20 -6 -45 0 -67 -10 -65 -16 2 -10 95
-7 136 8 159 11 17 12 24 2 27 -8 3 -5 10 8 20 11 8 17 19 12 23 -4 4 -7 1 -7
-7 0 -11 -2 -12 -9 -1 -6 11 -10 10 -15 -5z"/>
<path d="M1666 1549 c-8 -42 0 -50 9 -9 4 17 5 34 2 36 -2 3 -7 -10 -11 -27z"/>
<path d="M2721 1556 c-17 -10 -20 -15 -10 -19 8 -3 0 -8 -18 -12 -33 -8 -42
-19 -23 -30 6 -3 10 -1 10 5 0 6 3 9 8 6 13 -8 99 39 94 52 -5 16 -31 15 -61
-2z"/>
<path d="M570 1532 c0 -4 4 -12 9 -17 5 -6 11 -26 13 -45 4 -43 38 -58 38 -16
0 19 5 26 20 26 11 0 20 6 20 13 0 22 -11 27 -27 12 -11 -12 -18 -12 -33 -2
-11 6 -20 17 -20 24 0 7 -4 13 -10 13 -5 0 -10 -4 -10 -8z"/>
<path d="M1609 1513 c-5 -14 -8 -34 -7 -42 2 -9 9 3 15 27 12 47 8 56 -8 15z"/>
<path d="M2547 1533 c-3 -5 -1 -17 4 -28 7 -17 8 -17 8 8 1 27 -4 34 -12 20z"/>
<path d="M1710 1520 c0 -6 5 -8 10 -5 6 4 10 -6 10 -21 0 -22 3 -25 12 -16 9
9 10 17 2 29 -13 21 -34 29 -34 13z"/>
<path d="M2608 1508 c-3 -15 -2 -31 2 -35 4 -4 3 -53 -2 -108 -9 -97 -12 -275
-5 -305 5 -24 51 -120 58 -120 3 0 6 7 6 15 0 8 -4 15 -9 15 -14 0 -39 72 -45
131 -7 73 16 319 31 324 6 2 44 14 84 26 76 22 121 51 89 57 -8 2 -29 -4 -46
-13 -17 -8 -34 -15 -37 -14 -4 0 -10 -5 -14 -12 -5 -7 -16 -13 -27 -14 -10 -1
-28 -7 -40 -13 -13 -7 -24 -8 -27 -3 -4 5 -2 11 2 13 4 1 3 21 -3 43 -11 38
-12 38 -17 13z"/>
<path d="M1921 1496 c-9 -11 -10 -19 -2 -28 45 -55 61 -77 61 -87 0 -6 4 -11
9 -11 5 0 15 -16 21 -35 l12 -35 83 0 c148 0 323 45 339 87 6 14 4 14 -19 -1
-14 -9 -25 -13 -25 -9 0 5 -4 3 -8 -3 -14 -21 -137 -52 -225 -57 -118 -6 -126
-4 -135 46 -1 4 -13 20 -27 35 -14 15 -25 35 -25 45 0 10 -7 20 -16 24 -9 3
-19 15 -23 25 -6 18 -9 18 -20 4z"/>
<path d="M547 1493 c-19 -18 4 -154 31 -185 23 -27 33 -11 17 30 -8 20 -19 64
-24 96 -12 64 -14 70 -24 59z"/>
<path d="M1840 1494 c0 -5 14 -22 30 -37 17 -16 30 -25 30 -20 0 5 -13 22 -30
38 -16 16 -30 25 -30 19z"/>
<path d="M2880 1488 c0 -7 12 -19 27 -25 l26 -13 -23 25 c-27 29 -30 30 -30
13z"/>
<path d="M738 1460 c-3 -19 0 -30 7 -30 7 0 10 11 7 30 -2 17 -5 30 -7 30 -2
0 -5 -13 -7 -30z"/>
<path d="M2482 1460 c0 -19 2 -27 5 -17 2 9 2 25 0 35 -3 9 -5 1 -5 -18z"/>
<path d="M681 1463 c0 -12 -7 -24 -13 -26 -7 -3 3 -5 22 -5 19 0 27 2 18 5 -9
2 -19 14 -21 26 l-4 22 -2 -22z"/>
<path d="M891 1461 c-10 -6 -9 -10 3 -14 8 -3 18 -2 21 3 8 13 -9 20 -24 11z"/>
<path d="M1671 1417 c-1 -37 -6 -59 -14 -63 -7 -2 -14 -15 -14 -27 -2 -22 -2
-22 17 3 l20 25 0 -27 c0 -16 4 -28 9 -28 5 0 19 -28 32 -62 13 -35 31 -72 41
-82 9 -10 15 -23 12 -27 -2 -4 0 -10 6 -14 6 -4 8 -11 5 -16 -3 -5 1 -6 9 -3
11 4 19 -2 25 -17 7 -17 10 -19 10 -7 1 9 -7 23 -18 30 -18 13 -37 55 -33 71
1 5 -2 6 -7 3 -5 -4 -17 15 -27 41 -10 27 -25 59 -33 72 -8 13 -20 60 -27 105
l-11 81 -2 -58z"/>
<path d="M2845 1460 c-3 -6 4 -14 17 -19 13 -5 30 -16 38 -26 21 -25 87 -56
105 -49 13 5 11 9 -11 20 -14 8 -32 14 -38 14 -7 0 -27 16 -46 35 -34 36 -54
43 -65 25z"/>
<path d="M2953 1463 c9 -14 47 -24 47 -12 0 5 -4 9 -9 9 -5 0 -17 3 -27 7 -11
4 -15 3 -11 -4z"/>
<path d="M1485 1435 c-22 -13 -35 -24 -30 -25 12 0 75 37 75 45 0 8 -2 7 -45
-20z"/>
<path d="M2526 1444 c-3 -9 -6 -23 -6 -31 0 -13 3 -13 15 -3 17 14 20 36 6 44
-5 3 -12 -1 -15 -10z"/>
<path d="M1642 1410 c0 -19 2 -27 5 -17 2 9 2 25 0 35 -3 9 -5 1 -5 -18z"/>
<path d="M2756 1431 c-45 -9 -41 -26 7 -27 23 -1 62 -5 87 -9 l45 -7 -37 26
c-38 26 -50 29 -102 17z"/>
<path d="M1740 1414 c0 -13 3 -14 13 -5 8 6 18 7 22 3 5 -4 5 -1 1 6 -10 18
-36 15 -36 -4z"/>
<path d="M1911 1409 c0 -13 4 -33 9 -44 7 -14 8 -8 3 20 -7 46 -13 59 -12 24z"/>
<path d="M1497 1360 c-55 -56 -55 -66 -2 -19 30 27 63 69 53 69 -2 0 -25 -23
-51 -50z"/>
<path d="M3381 1388 c0 -16 -8 -28 -18 -31 -10 -3 17 -5 60 -6 42 0 77 -5 77
-9 0 -20 -28 -45 -44 -39 -9 4 -16 2 -16 -3 0 -6 11 -10 24 -10 21 0 26 -7 35
-42 10 -42 10 -41 5 14 -3 32 -1 66 5 77 9 16 7 21 -10 26 -11 4 -23 4 -26 1
-3 -3 -12 2 -19 12 -13 16 -13 16 -14 0 0 -12 -8 -18 -24 -18 -19 0 -26 6 -29
28 l-4 27 -2 -27z"/>
<path d="M3764 1398 c-13 -20 -4 -81 13 -98 14 -13 15 -13 8 5 -13 34 -12 60
3 71 12 9 12 12 -1 23 -12 9 -17 9 -23 -1z"/>
<path d="M2464 1365 c-23 -36 -14 -38 14 -4 13 16 19 29 13 29 -6 0 -18 -11
-27 -25z"/>
<path d="M2520 1383 c-4 -24 -6 -28 -18 -50 -7 -13 -8 -23 -3 -23 5 0 12 6 14
13 3 6 6 1 8 -13 1 -18 4 -14 9 15 6 35 7 32 8 -25 0 -46 -2 -58 -8 -40 l-8
25 -1 -26 c-1 -14 3 -39 8 -55 5 -16 17 -56 27 -89 9 -33 21 -64 25 -69 9 -10
-19 111 -32 135 -4 10 -4 59 0 110 8 96 6 114 -8 90 -7 -11 -10 -11 -14 0 -4
10 -6 11 -7 2z"/>
<path d="M3050 1365 c0 -13 53 -31 79 -26 7 1 10 -2 7 -7 -6 -9 100 -122 108
-115 2 2 -18 26 -45 53 -27 27 -49 56 -49 65 0 8 -1 15 -2 15 -2 0 -24 7 -50
15 -40 12 -48 12 -48 0z"/>
<path d="M1991 1303 c18 -32 41 -75 52 -96 10 -22 21 -37 23 -34 6 6 -16 51
-64 131 -44 74 -53 72 -11 -1z"/>
<path d="M3590 1335 c30 -8 69 -14 85 -14 l30 1 -29 8 c-15 5 -53 11 -85 14
l-56 6 55 -15z"/>
<path d="M2414 1318 c-23 -27 -37 -58 -26 -58 12 0 54 60 50 71 -2 6 -13 0
-24 -13z"/>
<path d="M2801 1330 c1 -8 5 -26 9 -40 l8 -25 1 25 c0 14 -4 32 -9 40 -9 13
-10 13 -9 0z"/>
<path d="M3160 1335 c0 -7 41 -23 78 -31 18 -3 12 2 -17 15 -43 21 -61 26 -61
16z"/>
<path d="M2460 1306 c0 -8 -6 -21 -12 -28 -7 -8 -22 -25 -33 -38 l-20 -25 26
23 c14 12 29 22 34 22 4 0 5 -28 2 -62 -5 -43 -3 -58 3 -47 12 21 19 159 8
165 -4 3 -8 -2 -8 -10z"/>
<path d="M1544 1285 c-4 -8 -11 -12 -18 -8 -6 3 -8 3 -4 -2 4 -4 -16 -16 -45
-26 -46 -15 -73 -21 -167 -36 -53 -8 -146 -9 -157 0 -7 5 -20 4 -31 -2 -30
-16 -181 -8 -221 12 -40 20 -62 22 -59 5 5 -22 109 -37 301 -44 159 -6 190 -5
205 8 9 9 37 18 62 22 60 9 126 40 139 65 7 12 9 21 6 21 -3 0 -8 -7 -11 -15z"/>
<path d="M1936 1275 c8 -37 14 -45 14 -19 0 10 -5 26 -10 34 -8 11 -9 7 -4
-15z"/>
<path d="M3288 1293 c13 -3 26 -11 29 -19 6 -17 24 -19 21 -2 -2 7 12 15 32
19 25 5 16 6 -35 6 -38 0 -60 -2 -47 -4z"/>
<path d="M2040 1281 c0 -5 6 -22 14 -38 20 -39 73 -161 86 -198 9 -28 9 -29
-5 -11 -8 11 -15 15 -15 9 0 -6 7 -16 15 -23 8 -6 14 -15 13 -18 -1 -4 4 -20
11 -37 7 -16 14 -46 17 -67 2 -21 6 -56 9 -78 3 -25 0 -39 -6 -37 -6 1 -16 -6
-22 -16 -17 -26 11 -44 57 -39 29 3 38 10 42 29 5 18 2 28 -10 35 -9 5 -16 22
-16 40 l0 30 -17 -21 -18 -22 -2 31 c-2 25 1 30 20 30 19 0 25 9 35 45 6 25
23 67 36 94 13 27 26 61 30 75 3 14 11 25 17 23 7 -1 14 4 16 11 3 8 -1 10
-14 5 -16 -6 -16 -5 -4 10 7 9 17 15 21 12 5 -3 12 0 16 6 5 8 3 9 -6 4 -8 -5
-11 -3 -8 6 3 8 10 14 16 14 6 0 17 7 24 15 11 12 11 12 -4 1 -11 -8 -18 -9
-18 -3 0 6 5 14 10 17 6 4 7 11 4 17 -4 6 -13 -1 -22 -18 -8 -16 -21 -40 -30
-54 -9 -14 -17 -27 -17 -30 0 -3 -10 -25 -22 -50 -24 -52 -57 -127 -66 -152
-9 -27 -26 -22 -33 10 -10 40 -67 185 -108 275 -33 71 -46 91 -46 68z m207
-525 c-4 -9 -11 -16 -17 -16 -11 0 -14 33 -3 44 11 10 26 -11 20 -28z m-57 -8
c0 -17 -3 -18 -14 -8 -8 6 -12 18 -9 26 7 19 23 7 23 -18z"/>
<path d="M577 1274 c-9 -10 2 -24 19 -24 8 0 14 7 14 15 0 15 -21 21 -33 9z"/>
<path d="M2682 1200 c0 -19 2 -27 5 -17 2 9 2 25 0 35 -3 9 -5 1 -5 -18z"/>
<path d="M3120 1186 c0 -8 -5 -16 -12 -18 -7 -3 -8 -7 -2 -11 5 -3 15 3 22 13
7 12 8 21 2 25 -6 3 -10 0 -10 -9z"/>
<path d="M3870 1169 c0 -10 5 -19 10 -19 6 0 10 -4 10 -9 0 -12 -38 -24 -79
-25 -19 -1 -36 -7 -38 -13 -6 -17 113 -18 123 -2 3 6 17 8 31 4 21 -5 24 -3
19 10 -3 9 -6 20 -6 23 0 4 -4 1 -9 -7 -13 -20 -32 -3 -25 23 4 18 1 25 -15
29 -16 4 -21 0 -21 -14z"/>
<path d="M2076 1140 c7 -27 34 -71 34 -55 -1 6 -10 26 -21 45 -15 26 -18 29
-13 10z"/>
<path d="M3450 1151 c0 -5 11 -8 25 -8 14 0 28 3 31 8 3 5 -9 9 -25 9 -17 0
-31 -4 -31 -9z"/>
<path d="M3300 1141 c0 -5 3 -17 6 -25 5 -13 9 -14 20 -5 21 17 17 39 -6 39
-11 0 -20 -4 -20 -9z"/>
<path d="M1245 1130 c-19 -8 -19 -9 2 -9 12 -1 25 4 28 9 7 12 -2 12 -30 0z"/>
<path d="M2470 1111 c0 -17 2 -31 4 -31 8 0 13 51 5 56 -5 3 -9 -9 -9 -25z"/>
<path d="M2436 1104 c-4 -14 -5 -29 -2 -31 3 -3 8 7 12 21 3 15 4 29 1 32 -2
3 -8 -7 -11 -22z"/>
<path d="M2017 1080 c9 -22 18 -38 21 -36 6 7 -19 76 -28 76 -5 0 -1 -18 7
-40z"/>
<path d="M3330 1092 c0 -14 11 -21 26 -15 8 3 11 9 8 14 -7 11 -34 12 -34 1z"/>
<path d="M3660 1090 c8 -5 26 -10 39 -10 32 0 24 6 -19 14 -25 4 -31 3 -20 -4z"/>
<path d="M1590 1000 c0 -40 3 -71 6 -68 7 8 7 128 0 136 -4 3 -6 -28 -6 -68z"/>
<path d="M2000 1040 c0 -8 5 -22 10 -30 9 -13 10 -13 10 0 0 8 -5 22 -10 30
-9 13 -10 13 -10 0z"/>
<path d="M3898 1030 c23 -22 42 -26 42 -10 0 6 -7 10 -15 10 -8 0 -15 5 -15
10 0 6 -8 10 -17 10 -14 0 -14 -3 5 -20z"/>
<path d="M3365 1030 c3 -5 13 -10 21 -10 8 0 12 5 9 10 -3 6 -13 10 -21 10 -8
0 -12 -4 -9 -10z"/>
<path d="M1317 1009 c12 -12 25 -20 28 -17 3 3 -7 13 -22 23 l-28 17 22 -23z"/>
<path d="M2052 996 c6 -20 14 -36 18 -36 12 0 -1 48 -15 60 -11 9 -12 5 -3
-24z"/>
<path d="M3169 1010 c-13 -10 -19 -19 -13 -20 6 0 19 9 29 20 23 26 14 26 -16
0z"/>
<path d="M2550 995 c0 -8 5 -15 10 -15 6 0 10 7 10 15 0 8 -4 15 -10 15 -5 0
-10 -7 -10 -15z"/>
<path d="M3400 994 c0 -5 7 -18 15 -28 12 -16 15 -17 15 -4 0 8 -7 21 -15 28
-8 7 -15 9 -15 4z"/>
<path d="M1106 974 c-4 -10 -13 -13 -26 -9 -11 3 -20 2 -20 -2 0 -5 16 -10 35
-11 25 -2 35 1 35 12 0 21 -17 29 -24 10z"/>
<path d="M3142 960 c-20 -54 -60 -381 -56 -465 1 -22 3 -74 4 -115 1 -41 8
-109 16 -150 33 -168 48 -230 56 -230 4 0 8 5 8 11 0 5 4 7 10 4 6 -4 6 5 -1
22 -6 15 -11 79 -11 141 -1 62 -4 115 -9 117 -4 3 -15 -2 -23 -11 -18 -18 -20
-7 -6 32 12 30 4 47 -10 24 -8 -12 -10 -10 -10 8 0 13 4 20 10 17 6 -3 10 5
10 19 0 14 -4 27 -9 30 -10 7 -8 166 2 183 4 6 2 13 -4 15 -9 3 -9 10 1 27 7
15 8 21 1 17 -16 -11 -13 20 4 37 13 13 13 16 -1 21 -14 5 -14 8 1 22 13 14
14 19 3 25 -9 6 -8 9 7 9 15 0 17 2 6 9 -10 6 -10 13 -2 29 8 15 8 21 -1 24
-8 3 -7 13 5 36 8 18 11 32 6 32 -6 0 0 10 13 23 13 12 16 16 6 8 -23 -18 -34
-9 -14 11 9 9 11 20 6 29 -7 10 -11 8 -18 -11z"/>
<path d="M1813 925 c0 -27 2 -38 4 -22 2 15 2 37 0 50 -2 12 -4 0 -4 -28z"/>
<path d="M2580 925 c0 -14 2 -25 4 -25 2 0 6 11 8 25 3 14 1 25 -3 25 -5 0 -9
-11 -9 -25z"/>
<path d="M3440 940 c0 -5 14 -25 30 -43 17 -19 30 -39 30 -43 0 -5 9 -15 20
-22 12 -7 20 -8 20 -2 0 5 -5 10 -10 10 -6 0 -16 12 -23 28 -6 15 -22 35 -35
46 -19 15 -21 21 -10 27 10 7 9 9 -4 9 -10 0 -18 -4 -18 -10z"/>
<path d="M2035 908 c4 -13 11 -27 16 -33 5 -5 4 5 -2 23 -12 36 -24 44 -14 10z"/>
<path d="M2455 894 c-4 -16 -8 -35 -11 -41 -2 -7 0 -13 5 -13 5 0 11 17 13 38
6 45 1 55 -7 16z"/>
<path d="M2800 900 c0 -19 3 -21 12 -12 9 9 9 15 0 24 -9 9 -12 7 -12 -12z"/>
<path d="M3403 893 c1 -13 8 -23 16 -23 12 0 12 -3 3 -12 -7 -7 -12 -19 -12
-27 1 -13 4 -12 15 3 19 25 19 26 -5 56 -19 25 -19 25 -17 3z"/>
<path d="M1633 865 c0 -22 2 -30 4 -17 2 12 2 30 0 40 -3 9 -5 -1 -4 -23z"/>
<path d="M1739 872 c-3 -20 -2 -29 4 -23 5 5 7 19 5 32 -3 20 -5 19 -9 -9z"/>
<path d="M860 880 c0 -5 12 -10 28 -9 24 0 25 1 7 9 -27 12 -35 12 -35 0z"/>
<path d="M1173 855 c9 -12 17 -26 17 -32 0 -12 28 -38 35 -32 2 3 -13 23 -33
45 -20 22 -29 31 -19 19z"/>
<path d="M1933 835 c0 -27 2 -38 4 -22 2 15 2 37 0 50 -2 12 -4 0 -4 -28z"/>
<path d="M2900 866 c0 -8 -5 -16 -12 -18 -8 -3 -9 -6 -1 -11 5 -3 15 5 21 18
7 15 8 25 2 25 -6 0 -10 -6 -10 -14z"/>
<path d="M1558 836 c-3 -14 -1 -31 3 -38 6 -8 9 1 9 25 0 42 -6 48 -12 13z"/>
<path d="M2011 808 c-1 -27 3 -48 7 -48 4 0 6 17 4 38 -5 58 -10 62 -11 10z"/>
<path d="M2090 832 c0 -5 7 -17 15 -28 14 -19 14 -19 15 2 0 12 -7 24 -15 28
-8 3 -15 2 -15 -2z"/>
<path d="M3440 825 c0 -8 5 -15 10 -15 6 0 10 7 10 15 0 8 -4 15 -10 15 -5 0
-10 -7 -10 -15z"/>
<path d="M2733 790 c0 -25 2 -35 4 -22 2 12 2 32 0 45 -2 12 -4 2 -4 -23z"/>
<path d="M1663 780 c0 -25 2 -35 4 -22 2 12 2 32 0 45 -2 12 -4 2 -4 -23z"/>
<path d="M3540 796 c0 -11 39 -50 45 -44 3 2 -6 15 -20 28 -14 13 -25 20 -25
16z"/>
<path d="M1100 772 c0 -7 5 -12 11 -12 5 0 8 -4 4 -9 -3 -6 4 -15 15 -21 28
-15 25 2 -5 30 -14 13 -25 18 -25 12z"/>
<path d="M1200 774 c0 -6 9 -21 20 -34 11 -13 20 -18 20 -13 0 15 -39 61 -40
47z"/>
<path d="M2097 760 c6 -22 15 -19 19 5 1 8 -4 15 -11 15 -8 0 -11 -7 -8 -20z"/>
<path d="M2770 749 c0 -16 4 -28 9 -25 8 5 3 56 -5 56 -2 0 -4 -14 -4 -31z"/>
<path d="M3482 760 c-7 -11 -9 -20 -4 -20 10 0 32 22 32 32 0 15 -15 8 -28
-12z"/>
<path d="M2606 754 c-8 -21 -8 -39 1 -30 8 7 15 46 9 46 -2 0 -7 -7 -10 -16z"/>
<path d="M3500 725 c-13 -14 -21 -27 -18 -30 2 -3 17 9 33 25 16 17 24 30 19
30 -6 0 -21 -11 -34 -25z"/>
<path d="M2010 726 c0 -8 5 -18 10 -21 6 -3 10 1 10 9 0 8 -4 18 -10 21 -5 3
-10 -1 -10 -9z"/>
<path d="M2291 728 c0 -7 4 -22 9 -33 8 -18 9 -17 9 7 1 15 -3 30 -9 33 -5 3
-10 0 -9 -7z"/>
<path d="M1210 707 c8 -7 21 -19 29 -27 11 -13 12 -12 3 6 -7 12 -19 24 -29
28 -16 5 -16 4 -3 -7z"/>
<path d="M2197 598 c-3 -68 -5 -231 -5 -363 0 -198 2 -223 8 -140 11 130 18
625 10 625 -4 0 -10 -55 -13 -122z"/>
<path d="M1658 670 c-3 -17 -1 -33 4 -36 4 -3 8 11 8 30 0 44 -6 47 -12 6z"/>
<path d="M1881 658 c0 -31 3 -37 8 -24 7 18 3 66 -5 66 -2 0 -4 -19 -3 -42z"/>
<path d="M3612 688 c2 -6 10 -14 16 -16 7 -2 10 2 6 12 -7 18 -28 22 -22 4z"/>
<path d="M2010 675 c0 -8 5 -15 10 -15 6 0 10 7 10 15 0 8 -4 15 -10 15 -5 0
-10 -7 -10 -15z"/>
<path d="M2522 660 c0 -19 2 -27 5 -17 2 9 2 25 0 35 -3 9 -5 1 -5 -18z"/>
<path d="M1803 645 c0 -22 2 -30 4 -17 2 12 2 30 0 40 -3 9 -5 -1 -4 -23z"/>
<path d="M2102 642 c2 -23 8 -40 13 -38 13 4 9 56 -5 70 -8 8 -10 -1 -8 -32z"/>
<path d="M1213 659 c9 -5 17 -20 17 -32 0 -12 5 -29 10 -37 7 -11 10 -6 10 21
0 37 -14 59 -39 59 -13 -1 -13 -2 2 -11z"/>
<path d="M1922 634 c-1 -13 3 -24 8 -24 12 0 14 37 2 44 -4 2 -9 -6 -10 -20z"/>
<path d="M3568 649 c-10 -6 -18 -15 -18 -21 0 -6 -8 -17 -17 -25 -17 -13 -16
-13 2 -4 34 18 57 39 54 50 -3 6 -10 6 -21 0z"/>
<path d="M1090 642 c0 -4 14 -16 30 -25 17 -10 30 -16 30 -14 0 2 -13 13 -30
25 -16 13 -30 19 -30 14z"/>
<path d="M1877 590 c-3 -11 -1 -23 4 -26 5 -3 9 6 9 20 0 31 -6 34 -13 6z"/>
<path d="M2654 595 c4 -24 16 -30 16 -7 0 12 -4 22 -9 22 -5 0 -8 -7 -7 -15z"/>
<path d="M3430 595 c-7 -9 -11 -18 -8 -20 3 -3 11 1 18 10 7 9 11 18 8 20 -3
3 -11 -1 -18 -10z"/>
<path d="M1200 593 c0 -9 36 -43 45 -43 3 0 5 3 5 8 -1 10 -50 45 -50 35z"/>
<path d="M1923 560 c0 -25 2 -35 4 -22 2 12 2 32 0 45 -2 12 -4 2 -4 -23z"/>
<path d="M1964 575 c4 -24 16 -30 16 -7 0 12 -4 22 -9 22 -5 0 -8 -7 -7 -15z"/>
<path d="M2059 583 c0 -5 -2 -19 -4 -33 -1 -14 0 -31 4 -37 4 -7 8 7 9 32 1
25 -1 45 -3 45 -3 0 -5 -3 -6 -7z"/>
<path d="M3568 564 c4 -22 6 -24 14 -10 9 16 3 36 -11 36 -5 0 -6 -12 -3 -26z"/>
<path d="M3440 558 c-18 -19 -26 -38 -17 -38 2 0 13 14 25 30 26 35 22 40 -8
8z"/>
<path d="M1160 546 c14 -13 27 -22 29 -20 6 5 -35 44 -46 44 -4 0 4 -11 17
-24z"/>
<path d="M3340 562 c0 -5 -11 -14 -25 -20 -14 -6 -25 -16 -25 -22 0 -8 4 -8
13 0 6 5 23 19 37 30 14 10 19 19 13 20 -7 0 -13 -4 -13 -8z"/>
<path d="M1224 531 c22 -24 11 -54 -17 -45 -19 6 -19 4 4 -17 13 -13 25 -33
27 -44 2 -11 6 -27 9 -35 16 -37 6 -78 -12 -50 -3 5 -16 15 -28 21 -12 6 -5
-3 16 -21 38 -32 49 -54 22 -44 -21 8 -19 2 6 -19 l21 -18 -7 93 c-3 51 -7
113 -9 137 -3 39 -17 60 -40 61 -5 0 -2 -8 8 -19z"/>
<path d="M946 532 c5 -4 27 -21 49 -36 l40 -28 -37 36 c-21 20 -43 36 -50 36
-7 0 -8 -3 -2 -8z"/>
<path d="M1873 520 c1 -11 5 -20 9 -20 4 0 8 9 8 20 0 11 -4 20 -9 20 -6 0 -9
-9 -8 -20z"/>
<path d="M2012 510 c0 -19 2 -27 5 -17 2 9 2 25 0 35 -3 9 -5 1 -5 -18z"/>
<path d="M2105 509 c1 -16 6 -33 9 -36 4 -4 5 8 4 26 -1 18 -5 34 -9 37 -4 2
-5 -10 -4 -27z"/>
<path d="M3451 524 c-7 -8 -11 -17 -9 -20 3 -2 13 5 23 16 10 11 14 20 9 20
-5 -1 -15 -8 -23 -16z"/>
<path d="M2670 500 c0 -5 7 -10 15 -10 8 0 15 5 15 10 0 6 -7 10 -15 10 -8 0
-15 -4 -15 -10z"/>
<path d="M1747 480 c-3 -11 -2 -20 3 -20 4 0 10 9 13 20 3 11 2 20 -3 20 -4 0
-10 -9 -13 -20z"/>
<path d="M2761 470 c-6 -18 -6 -28 -1 -25 6 4 10 12 10 20 0 7 5 15 12 17 9 3
9 6 1 11 -7 4 -15 -5 -22 -23z"/>
<path d="M890 473 c0 -5 15 -14 33 -21 44 -16 56 -15 32 2 -27 18 -65 29 -65
19z"/>
<path d="M3325 454 l-30 -26 33 22 c17 12 32 23 32 26 0 7 -4 5 -35 -22z"/>
<path d="M585 450 c-3 -5 1 -10 9 -10 8 0 18 5 21 10 3 6 -1 10 -9 10 -8 0
-18 -4 -21 -10z"/>
<path d="M1872 400 c0 -17 4 -28 9 -25 11 8 12 55 1 55 -5 0 -9 -14 -10 -30z"/>
<path d="M1919 418 c0 -7 -2 -21 -4 -30 -2 -10 1 -18 6 -18 5 0 9 14 9 30 0
29 -9 44 -11 18z"/>
<path d="M2734 421 c4 -5 0 -11 -6 -14 -7 -2 -9 -8 -5 -13 4 -5 12 -2 17 6 13
20 12 30 -1 30 -5 0 -8 -4 -5 -9z"/>
<path d="M890 404 c0 -10 6 -14 14 -11 8 3 16 1 19 -6 2 -6 6 -2 9 9 4 15 0
20 -18 22 -16 1 -24 -4 -24 -14z"/>
<path d="M1096 412 c12 -11 64 -33 64 -27 0 5 -56 35 -67 35 -4 0 -3 -4 3 -8z"/>
<path d="M2260 395 c0 -8 5 -15 10 -15 6 0 10 7 10 15 0 8 -4 15 -10 15 -5 0
-10 -7 -10 -15z"/>
<path d="M3433 386 c7 -14 13 -23 15 -21 7 6 -9 45 -18 45 -4 0 -3 -11 3 -24z"/>
<path d="M2610 391 c0 -5 7 -14 15 -21 16 -14 18 -10 9 14 -6 17 -24 22 -24 7z"/>
<path d="M2762 375 c-17 -37 -14 -45 4 -12 9 16 14 31 11 33 -2 2 -9 -7 -15
-21z"/>
<path d="M3495 363 c3 -8 5 -19 5 -24 0 -6 4 -8 9 -4 14 8 9 42 -6 42 -8 0
-11 -7 -8 -14z"/>
<path d="M2055 345 c0 -32 15 -44 15 -12 0 14 -4 28 -8 31 -4 2 -8 -6 -7 -19z"/>
<path d="M1084 342 c3 -5 29 -22 58 -36 29 -15 44 -20 33 -11 -27 22 -99 59
-91 47z"/>
<path d="M1916 309 c3 -44 14 -49 14 -6 0 21 -4 37 -8 37 -5 0 -7 -14 -6 -31z"/>
<path d="M2532 288 c-3 -37 2 -35 12 5 3 15 3 27 -2 27 -4 0 -9 -14 -10 -32z"/>
<path d="M2653 303 c-3 -10 -8 -21 -10 -25 -2 -5 0 -8 5 -8 5 0 12 11 14 25 6
29 0 33 -9 8z"/>
<path d="M2812 295 c-6 -14 -8 -25 -3 -25 8 0 23 41 17 47 -1 2 -8 -8 -14 -22z"/>
<path d="M3478 314 c-4 -3 -4 -13 -1 -22 5 -11 2 -14 -10 -9 -13 5 -17 1 -17
-18 0 -14 -5 -25 -11 -25 -6 0 -9 -9 -6 -20 5 -18 -4 -25 -26 -21 -5 1 -6 -12
-2 -29 6 -26 4 -29 -11 -23 -14 5 -16 3 -11 -11 4 -10 7 -20 7 -22 0 -2 4 -4
9 -4 5 0 15 17 22 38 6 20 15 39 18 42 18 15 62 113 54 121 -5 5 -12 7 -15 3z"/>
<path d="M1960 285 c0 -8 5 -15 10 -15 6 0 10 7 10 15 0 8 -4 15 -10 15 -5 0
-10 -7 -10 -15z"/>
<path d="M3570 265 c0 -19 4 -35 8 -35 4 0 6 16 4 35 -2 19 -6 35 -8 35 -2 0
-4 -16 -4 -35z"/>
<path d="M891 278 c-1 -10 -5 -18 -11 -18 -5 0 -10 -10 -10 -22 1 -22 2 -21
16 5 8 16 13 34 10 40 -2 7 -5 4 -5 -5z"/>
<path d="M1215 266 c11 -9 25 -20 32 -26 15 -12 23 -13 23 -2 0 5 -17 16 -37
25 -28 13 -33 13 -18 3z"/>
<path d="M1881 253 c-1 -17 4 -35 9 -38 11 -7 11 9 0 45 -8 24 -8 24 -9 -7z"/>
<path d="M2010 268 c0 -7 4 -19 9 -27 7 -10 9 -7 8 12 -2 26 -17 39 -17 15z"/>
<path d="M1135 240 c-9 -16 -12 -30 -7 -30 4 0 13 14 19 30 6 17 10 30 7 30
-2 0 -10 -13 -19 -30z"/>
<path d="M2568 240 c-3 -17 -1 -33 4 -36 4 -3 8 11 8 30 0 44 -6 47 -12 6z"/>
<path d="M2848 240 c2 -16 6 -30 8 -30 2 0 4 14 4 30 0 17 -4 30 -8 30 -5 0
-7 -13 -4 -30z"/>
<path d="M900 224 c0 -11 -5 -25 -12 -32 -9 -9 -9 -12 0 -12 13 0 28 47 18 57
-3 4 -6 -3 -6 -13z"/>
<path d="M823 218 c0 -7 -4 -22 -8 -33 -8 -20 -8 -20 8 0 18 22 22 45 9 45 -5
0 -9 -6 -9 -12z"/>
<path d="M1970 205 c0 -8 5 -15 10 -15 6 0 10 7 10 15 0 8 -4 15 -10 15 -5 0
-10 -7 -10 -15z"/>
<path d="M2015 195 c2 -37 15 -43 15 -7 0 18 -4 32 -8 32 -4 0 -7 -11 -7 -25z"/>
<path d="M3923 180 c47 -25 59 -25 28 0 -13 11 -33 20 -44 20 -17 0 -13 -5 16
-20z"/>
<path d="M1135 170 c-10 -11 -13 -20 -8 -20 13 0 38 29 31 35 -3 3 -13 -4 -23
-15z"/>
<path d="M1256 181 c-4 -6 -2 -11 4 -11 7 0 9 -13 6 -36 -4 -22 -2 -33 4 -29
14 8 12 -12 -5 -60 -8 -22 -15 -41 -15 -42 0 -2 9 -3 21 -3 20 0 20 4 14 87
-5 85 -16 116 -29 94z"/>
<path d="M3740 160 c0 -11 6 -20 14 -20 24 0 26 15 5 28 -16 11 -19 9 -19 -8z"/>
<path d="M856 125 c-15 -25 -31 -45 -36 -45 -6 0 -10 -5 -10 -12 0 -18 34 17
59 62 31 55 19 51 -13 -5z"/>
<path d="M932 145 c-6 -14 -8 -25 -3 -25 8 0 23 41 17 47 -1 2 -8 -8 -14 -22z"/>
<path d="M2021 138 c1 -7 5 -24 9 -38 8 -24 8 -24 9 7 1 17 -3 35 -9 38 -5 3
-10 0 -9 -7z"/>
<path d="M2557 140 c-21 -4 -50 -5 -65 -2 -23 4 -25 2 -14 -9 9 -10 46 -15
129 -16 64 -1 123 -5 131 -8 8 -3 12 0 10 7 -10 30 -107 45 -191 28z"/>
<path d="M1980 135 c0 -5 7 -32 15 -60 l15 -50 -6 45 c-6 40 -23 90 -24 65z"/>
<path d="M2770 125 c0 -8 5 -15 10 -15 6 0 10 7 10 15 0 8 -4 15 -10 15 -5 0
-10 -7 -10 -15z"/>
<path d="M3600 105 c0 -45 7 -45 12 0 2 19 0 35 -4 35 -4 0 -8 -16 -8 -35z"/>
<path d="M3678 100 c-3 -17 -1 -33 4 -36 4 -3 8 11 8 30 0 44 -6 47 -12 6z"/>
<path d="M520 101 c-38 -7 -31 -19 11 -19 15 0 26 6 26 14 0 8 -1 13 -1 13 -1
-1 -17 -4 -36 -8z"/>
<path d="M2111 55 c1 -31 4 -53 7 -50 11 10 12 94 2 100 -5 3 -9 -19 -9 -50z"/>
<path d="M576 85 c8 -19 24 -19 24 0 0 8 -7 15 -15 15 -9 0 -12 -6 -9 -15z"/>
<path d="M2782 80 c-7 -12 -17 -18 -23 -14 -5 3 -65 6 -132 7 -67 0 -130 5
-139 11 -20 12 -31 5 -23 -16 8 -19 78 -30 204 -32 63 -1 96 -5 98 -13 3 -8
-11 -13 -39 -16 -31 -3 -26 -4 20 -4 61 0 62 0 45 19 -17 19 -12 29 20 41 9 3
-2 37 -12 37 -3 0 -12 -9 -19 -20z"/>
<path d="M3365 80 c-3 -11 -11 -20 -16 -20 -5 0 -9 -9 -9 -20 0 -11 -7 -20
-15 -20 -8 0 -15 -5 -15 -11 0 -20 25 -3 52 37 29 42 33 54 19 54 -5 0 -13 -9
-16 -20z"/>
<path d="M1947 70 c8 -30 21 -34 15 -5 -2 14 -8 25 -12 25 -5 0 -6 -9 -3 -20z"/>
<path d="M2897 77 c-11 -29 -9 -43 4 -30 6 6 9 19 7 29 -3 18 -4 18 -11 1z"/>
<path d="M3846 76 c3 -8 14 -16 25 -19 25 -7 24 -3 -6 17 -19 13 -23 13 -19 2z"/>
<path d="M2070 25 c0 -14 4 -25 9 -25 4 0 6 11 3 25 -2 14 -6 25 -8 25 -2 0
-4 -11 -4 -25z"/>
<path d="M1960 15 c0 -8 5 -15 10 -15 6 0 10 7 10 15 0 8 -4 15 -10 15 -5 0
-10 -7 -10 -15z"/>
<path d="M2486 23 c-11 -11 -6 -23 9 -23 8 0 15 4 15 9 0 13 -16 22 -24 14z"/>
<path d="M3781 26 c2 -2 40 -6 84 -9 47 -3 68 -2 50 3 -30 8 -142 13 -134 6z"/>
</g>
</svg>
